<?xml version="1.0" encoding="UTF-8"?>
<!DOCTYPE svg PUBLIC "-//W3C//DTD SVG 1.1//EN" "http://www.w3.org/Graphics/SVG/1.1/DTD/svg11.dtd">
<svg version="1.1" xmlns="http://www.w3.org/2000/svg" xmlns:xlink="http://www.w3.org/1999/xlink" x="0" y="0" width="928.571" height="523.964" viewBox="0, 0, 928.571, 523.964">
  <g id="Layer_1" transform="translate(-22.011, -83.299)">
    <path d="M250.395,131.042 C257.199,145.128 250.323,212.355 255.989,221.8 C260.329,229.032 275.042,227.697 282.098,228.638 C308.102,232.105 335.042,227.813 361.045,226.773 C403.355,225.08 447.397,224.035 489.722,226.151 C512.5,227.29 537.115,232.116 559.966,229.259 C573.759,227.535 588.172,223.501 602.236,224.908 C611.741,225.858 669.231,232.939 674.967,228.638 C678.76,225.793 678.919,216.248 679.318,211.854 C681.592,186.845 682.639,161.654 684.913,136.637 C685.428,130.976 691.479,119.173 689.264,113.636 C687.776,109.915 612.834,108.779 604.723,108.042 C588.762,106.591 572.838,102.586 556.858,101.825 C527.549,100.43 497.839,102.832 468.586,100.582 C445.347,98.795 421.659,96.581 398.342,95.609 C365.297,94.232 332.584,97.193 299.503,94.988 C285.473,94.052 271.067,93.234 257.233,91.258 C256.368,91.134 253.094,89.18 252.26,90.015 C247.157,95.117 252.272,124.223 255.989,129.799" fill-opacity="0" stroke="#000000" stroke-width="2.5" stroke-linecap="round" stroke-linejoin="round"/>
    <path d="M260.962,306.341 C261.32,335.778 274.876,363.934 272.773,393.369 C272.443,397.988 267.835,414.539 271.53,418.234 C277.892,424.597 315.145,420.446 323.125,420.099 C360.955,418.455 399.058,420.721 436.883,420.721 C493.609,420.721 550.243,428.802 607.21,428.802 C612.006,428.802 658.069,431.832 659.426,431.289 C664.173,429.39 663.491,410.443 663.778,406.423 C665.08,388.194 674.09,302.339 670.616,290.179 C667.947,280.84 634.345,291.089 628.345,291.422 C596.381,293.198 565.237,290.891 533.236,289.557 C490.615,287.781 447.678,291.075 405.18,289.557 C357.539,287.856 307.165,281.536 259.719,288.314" fill-opacity="0" stroke="#000000" stroke-width="2.5" stroke-linecap="round" stroke-linejoin="round"/>
    <path d="M272.773,479.154 C284.708,502.471 256.652,570.796 267.179,584.831 C282.917,605.815 348.628,596.642 372.234,596.642 C424.143,596.642 476.462,598.833 528.263,597.263 C550.481,596.59 572.527,594.777 594.777,594.777 C632.011,594.777 647.604,626.693 650.102,581.723 C651.785,551.424 654.427,521.582 659.426,491.587 C660.111,487.481 665.558,475.25 661.291,471.694 C656.552,467.745 632.825,476.47 625.858,477.289 C555.904,485.519 484.08,478.435 413.883,474.181 C370.087,471.527 326.01,471.073 282.098,471.073" fill-opacity="0" stroke="#000000" stroke-width="2.5" stroke-linecap="round" stroke-linejoin="round"/>
    <path d="M772.563,107.42 C773.364,121.813 755.225,225.933 765.103,232.989 C779.978,243.614 870.682,224.295 891.294,222.421 C898.445,221.771 946.671,225.719 947.24,225.53" fill-opacity="0" stroke="#000000" stroke-width="2.5" stroke-linecap="round" stroke-linejoin="round"/>
    <path d="M798.05,99.961 C804.887,99.753 811.758,100.039 818.563,99.339 C835.027,97.644 851.146,93.468 867.672,91.879 C883.739,90.335 900.227,91.722 916.159,90.015 C923.219,89.258 934.641,83.404 941.646,86.906 C946.217,89.192 945.419,102.324 945.997,106.177 C952.117,146.977 947.24,172.359 947.24,211.232" fill-opacity="0" stroke="#000000" stroke-width="2.5" stroke-linecap="round" stroke-linejoin="round"/>
    <path d="M763.86,288.314 C761.616,322.605 765.812,357.415 760.13,391.504 C759.005,398.256 748.933,421.332 753.914,427.559 C764.971,441.38 826.02,437.084 840.942,435.64 C870.228,432.806 920.425,434.041 946.619,428.802" fill-opacity="0" stroke="#000000" stroke-width="2.5" stroke-linecap="round" stroke-linejoin="round"/>
    <path d="M783.752,286.449 C823.892,285.87 864.505,289.982 904.348,283.341 C908.589,282.634 931.973,275.533 935.429,278.99 C946.762,290.322 936.051,392.86 936.051,412.018" fill-opacity="0" stroke="#000000" stroke-width="2.5" stroke-linecap="round" stroke-linejoin="round"/>
    <path d="M753.914,495.938 C755.834,505.566 746.943,592.501 748.319,593.534 C756.025,599.313 776.18,593.534 784.995,593.534 C832.71,593.534 885.801,577.741 926.727,583.588" fill-opacity="0" stroke="#000000" stroke-width="2.5" stroke-linecap="round" stroke-linejoin="round"/>
    <path d="M774.428,476.668 C817.892,470.524 861.395,464.848 904.97,459.262 C910.97,458.493 936.267,452.094 941.024,453.046 C941.464,453.134 937.542,474.997 937.294,476.668 C932.371,509.9 929.213,545.611 929.213,579.236" fill-opacity="0" stroke="#000000" stroke-width="2.5" stroke-linecap="round" stroke-linejoin="round"/>
    <path d="M198.178,573.02 C195.997,510.627 192.583,448.39 192.583,385.91 C192.583,349.262 193.205,312.56 193.205,275.881 C193.205,230.384 194.5,181.5 194.5,138.5 C194.5,148.799 204.5,107.5 190.5,94.5 C178.747,83.586 121.244,90.5 107.5,90.5 C97.197,90.5 52.226,84.396 47.122,88.771 C44.305,91.186 42.222,165.115 41.5,174.5 C37.56,225.724 38.221,276.622 35.933,328.098 C34.206,366.956 36.699,406.225 32.825,444.964 C28.953,483.683 22.106,523.344 25.365,562.452 C25.81,567.79 23.062,584.749 26.608,589.182 C32.565,596.628 49.692,591.867 57.068,591.047 C100.306,586.243 140.397,591.728 178.286,587.939 C189.609,586.807 199.534,582.344 211.232,582.344" fill-opacity="0" stroke="#000000" stroke-width="2.5" stroke-linecap="round" stroke-linejoin="round"/>
    <g>
      <path d="M458.397,237.962 C458.315,246.184 458.071,254.386 457.914,262.572" fill-opacity="0" stroke="#C60A0A" stroke-width="2.5" stroke-linecap="round" stroke-linejoin="round"/>
      <path d="M454.015,262.53 L457.8,272.972 L461.814,262.615 z" fill="#C60A0A" fill-opacity="1" stroke="#C60A0A" stroke-width="2.5" stroke-opacity="1"/>
    </g>
    <g>
      <path d="M453.046,435.64 C452.428,441.99 452.104,448.297 451.943,454.646" fill-opacity="0" stroke="#C60A0A" stroke-width="2.5" stroke-linecap="round" stroke-linejoin="round"/>
      <path d="M448.043,454.603 L451.828,465.045 L455.843,454.689 z" fill="#C60A0A" fill-opacity="1" stroke="#C60A0A" stroke-width="2.5" stroke-opacity="1"/>
    </g>
    <g>
      <path d="M751.427,175.178 C734.698,173.131 718.013,174.349 701.337,174.926" fill-opacity="0" stroke="#C60A0A" stroke-width="2.5" stroke-linecap="round" stroke-linejoin="round"/>
      <path d="M701.259,171.027 L690.939,175.132 L701.414,178.825 z" fill="#C60A0A" fill-opacity="1" stroke="#C60A0A" stroke-width="2.5" stroke-opacity="1"/>
    </g>
    <g>
      <path d="M743.968,537.587 C720.146,541.516 698.344,545.473 675.628,542.45" fill-opacity="0" stroke="#C60A0A" stroke-width="2.5" stroke-linecap="round" stroke-linejoin="round"/>
      <path d="M676.358,538.619 L665.411,540.503 L674.898,546.281 z" fill="#C60A0A" fill-opacity="1" stroke="#C60A0A" stroke-width="2.5" stroke-opacity="1"/>
    </g>
    <g>
      <path d="M752.671,356.693 C734.297,356.907 716.681,361.755 698.763,361.2" fill-opacity="0" stroke="#C60A0A" stroke-width="2.5" stroke-linecap="round" stroke-linejoin="round"/>
      <path d="M699.193,357.324 L688.427,360.053 L698.333,365.076 z" fill="#C60A0A" fill-opacity="1" stroke="#C60A0A" stroke-width="2.5" stroke-opacity="1"/>
    </g>
    <g>
      <path d="M619.332,354.118 L619.332,354.118" fill="#000000"/>
      <path d="M619.332,354.118 L619.332,354.118" fill-opacity="0" stroke="#000000" stroke-width="2.5" stroke-linecap="round" stroke-linejoin="round"/>
    </g>
    <path d="M351.548,135.934 C351.163,132.277 347.077,132.876 343.582,134.135 C302.033,149.092 345.672,147.642 354.375,162.147 C364.371,178.807 322.514,174.554 317.369,172.683" fill-opacity="0" stroke="#000000" stroke-width="2.5" stroke-linecap="round" stroke-linejoin="round"/>
    <path d="M389.583,150.325 C379.295,139.936 361.804,169.7 371.08,170.627 C377.287,171.248 382.849,167.624 388.812,166.773" fill-opacity="0" stroke="#000000" stroke-width="2.5" stroke-linecap="round" stroke-linejoin="round"/>
    <path d="M415.025,150.325 C412.342,150.762 409.455,151.883 407.572,153.923 C404.94,156.775 403.717,159.833 403.717,163.689 C403.717,179.624 426.414,152.35 422.992,150.068 C420.835,148.63 417.085,165.649 419.394,169.342" fill-opacity="0" stroke="#000000" stroke-width="2.5" stroke-linecap="round" stroke-linejoin="round"/>
    <path d="M437.383,153.666 C424.98,191.947 458.382,119.825 452.545,166.516" fill-opacity="0" stroke="#000000" stroke-width="2.5" stroke-linecap="round" stroke-linejoin="round"/>
    <path d="M465.395,158.292 C468.027,157.37 461.207,167.397 463.853,166.516 C469.359,164.68 469.966,150.068 478.244,150.068 C487.255,150.068 486.906,161.034 483.641,166.259" fill-opacity="0" stroke="#000000" stroke-width="2.5" stroke-linecap="round" stroke-linejoin="round"/>
    <path d="M501.116,158.035 C499.752,161.152 500.932,163.751 501.63,164.974" fill-opacity="0" stroke="#000000" stroke-width="2.5" stroke-linecap="round" stroke-linejoin="round"/>
    <path d="M503.943,143.643 L503.943,143.643" fill-opacity="0" stroke="#000000" stroke-width="2.5" stroke-linecap="round" stroke-linejoin="round"/>
    <path d="M515.765,147.755 C505.251,194.557 531.184,121.402 531.184,165.231" fill-opacity="0" stroke="#000000" stroke-width="2.5" stroke-linecap="round" stroke-linejoin="round"/>
    <path d="M559.453,154.18 C561.317,142.893 545.125,159.226 550.202,163.175 C555.426,167.238 576.665,153.659 571.275,148.269 C563.222,140.217 565.763,185.706 563.308,189.388 C555.909,200.486 541.057,193.088 533.24,187.075" fill-opacity="0" stroke="#000000" stroke-width="2.5" stroke-linecap="round" stroke-linejoin="round"/>
    <path d="M308,374.5 C321.251,365.386 332.773,330.379 346,324.5 C350.904,322.32 342,375.709 342,381" fill-opacity="0" stroke="#000000" stroke-width="2.5" stroke-linecap="round" stroke-linejoin="round"/>
    <path d="M337,358.5 C339.833,358.5 342.667,358.5 345.5,358.5" fill-opacity="0" stroke="#000000" stroke-width="2.5" stroke-linecap="round" stroke-linejoin="round"/>
    <path d="M368,355 C365.762,367.312 366,362.273 366,370 C366,372.339 363.231,377.567 365.5,377 C372.009,375.373 373.606,355.079 384.5,357.5 C391.837,359.13 386.562,372.752 385.5,377" fill-opacity="0" stroke="#000000" stroke-width="2.5" stroke-linecap="round" stroke-linejoin="round"/>
    <path d="M414,359.5 C407.642,359.727 397.58,377.787 407,379.5 C417.882,381.478 424.417,367.928 427.5,360 C428.189,358.229 430.7,353.65 429,354.5 C422.366,357.817 421.73,373.34 422.5,379.5" fill-opacity="0" stroke="#000000" stroke-width="2.5" stroke-linecap="round" stroke-linejoin="round"/>
    <path d="M453,337.5 C447.108,349.793 449.889,365.778 445,378" fill-opacity="0" stroke="#000000" stroke-width="2.5" stroke-linecap="round" stroke-linejoin="round"/>
    <path d="M469.5,368 C472.192,372.278 475.013,375.757 479.5,378" fill-opacity="0" stroke="#000000" stroke-width="2.5" stroke-linecap="round" stroke-linejoin="round"/>
    <path d="M494,368.5 C485.913,380.411 474.04,389.113 465.5,400.5" fill-opacity="0" stroke="#000000" stroke-width="2.5" stroke-linecap="round" stroke-linejoin="round"/>
    <path d="M539,356 C483.232,355.625 545.809,380.615 525.5,384 C518.909,385.098 512.844,384.586 506.5,383" fill-opacity="0" stroke="#000000" stroke-width="2.5" stroke-linecap="round" stroke-linejoin="round"/>
    <path d="M554,367.5 C550.592,375.482 551.893,378.017 553,383" fill-opacity="0" stroke="#000000" stroke-width="2.5" stroke-linecap="round" stroke-linejoin="round"/>
    <path d="M556.5,352 L556.5,352" fill-opacity="0" stroke="#000000" stroke-width="2.5" stroke-linecap="round" stroke-linejoin="round"/>
    <path d="M572,363 C571.833,367.5 571.622,371.999 571.5,376.5 C570.737,404.749 584.908,341.223 593,365.5 C594.728,370.685 592.929,376.644 594,382" fill-opacity="0" stroke="#000000" stroke-width="2.5" stroke-linecap="round" stroke-linejoin="round"/>
    <path d="M621.5,358.5 C615.364,356.474 604.908,371.149 611,375.5 C619.953,381.895 634.764,362.509 628,358 C624.602,355.735 625.5,378.329 625.5,380.5 C625.5,401.48 619.499,400.786 600.5,403.5" fill-opacity="0" stroke="#000000" stroke-width="2.5" stroke-linecap="round" stroke-linejoin="round"/>
    <path d="M304.602,516.652 C305.8,524.17 306.376,531.686 306.376,539.277" fill-opacity="0" stroke="#000000" stroke-width="2.5" stroke-linecap="round" stroke-linejoin="round"/>
    <path d="M292.846,512.438 C297.295,500.389 315.206,490.843 327.448,497.576 C333.928,501.14 336.013,513.552 330.553,518.648 C321.34,527.248 310.811,519.536 311.478,519.314 C314.871,518.182 326.099,535.956 328.113,538.833" fill-opacity="0" stroke="#000000" stroke-width="2.5" stroke-linecap="round" stroke-linejoin="round"/>
    <path d="M351.625,528.186 C356.471,527.554 356.163,527.892 360.276,526.412 C383.944,517.891 351.211,513.84 343.64,527.299 C342.713,528.947 342.156,531.479 343.862,532.844 C348.442,536.508 358.081,536.563 363.603,535.949" fill-opacity="0" stroke="#000000" stroke-width="2.5" stroke-linecap="round" stroke-linejoin="round"/>
    <path d="M382.9,520.423 C382.256,526.394 382.113,532.412 381.57,538.389 C378.813,568.707 377.056,541.578 386.228,528.63 C398.224,511.694 409.031,520.907 402.642,537.946" fill-opacity="0" stroke="#000000" stroke-width="2.5" stroke-linecap="round" stroke-linejoin="round"/>
    <path d="M430.811,522.419 C428.311,520.886 425.778,519.688 423.27,521.754 C419.762,524.642 416.649,529.249 416.837,533.953 C417.324,546.124 438.758,530.986 428.372,521.754" fill-opacity="0" stroke="#000000" stroke-width="2.5" stroke-linecap="round" stroke-linejoin="round"/>
    <path d="M443.233,521.532 C444.826,558.478 433.179,520.054 453.436,530.182" fill-opacity="0" stroke="#000000" stroke-width="2.5" stroke-linecap="round" stroke-linejoin="round"/>
    <path d="M454.102,513.325 C465.502,513.604 477.01,513.99 488.482,513.99" fill-opacity="0" stroke="#000000" stroke-width="2.5" stroke-linecap="round" stroke-linejoin="round"/>
    <path d="M471.624,504.231 C472.561,516.151 471.978,528.415 469.628,540.164" fill-opacity="0" stroke="#000000" stroke-width="2.5" stroke-linecap="round" stroke-linejoin="round"/>
    <path d="M497.133,533.509 C496.908,535.247 497.297,536.933 497.576,538.611" fill-opacity="0" stroke="#000000" stroke-width="2.5" stroke-linecap="round" stroke-linejoin="round"/>
    <path d="M498.463,522.863 L498.463,522.863" fill-opacity="0" stroke="#000000" stroke-width="2.5" stroke-linecap="round" stroke-linejoin="round"/>
    <path d="M508.223,530.404 C508.223,527.225 508.223,543.121 508.223,539.942 C508.223,526.644 523.514,527.16 518.87,540.164" fill-opacity="0" stroke="#000000" stroke-width="2.5" stroke-linecap="round" stroke-linejoin="round"/>
    <path d="M545.044,529.739 C541.194,523.367 532.242,535.573 536.393,538.167 C540.159,540.521 552.574,531.502 549.258,528.186 C540.248,519.176 548.206,553.58 547.04,555.912 C543.708,562.576 529.094,557.614 524.415,555.912" fill-opacity="0" stroke="#000000" stroke-width="2.5" stroke-linecap="round" stroke-linejoin="round"/>
    <path d="M797.526,145.308 C796.966,151.508 797.214,157.728 796.596,163.903" fill-opacity="0" stroke="#000000" stroke-width="2.5" stroke-linecap="round" stroke-linejoin="round"/>
    <path d="M790.32,138.568 C823.358,109.007 829.536,160.162 801.013,150.654" fill-opacity="0" stroke="#000000" stroke-width="2.5" stroke-linecap="round" stroke-linejoin="round"/>
    <path d="M829.602,134.151 C829.763,143.619 827.743,153.166 827.743,162.508" fill-opacity="0" stroke="#000000" stroke-width="2.5" stroke-linecap="round" stroke-linejoin="round"/>
    <path d="M841.457,146.703 C840.719,150.8 838.539,155.952 839.597,160.184 C842.8,172.996 855.397,144.845 857.495,144.146 C859.208,143.575 854.359,153.562 859.122,158.325" fill-opacity="0" stroke="#000000" stroke-width="2.5" stroke-linecap="round" stroke-linejoin="round"/>
    <path d="M877.252,143.449 C875.771,143.613 870.292,153.057 874.927,153.443 C878.199,153.716 886.811,144.215 885.387,140.892 C883.669,136.883 880.302,146.99 880.274,147.633 C879.961,154.829 884.774,165.34 881.901,171.806 C879.276,177.712 866.825,181.515 865.398,173.665" fill-opacity="0" stroke="#000000" stroke-width="2.5" stroke-linecap="round" stroke-linejoin="round"/>
    <path d="M897.009,148.795 C896.451,150.406 896.079,156.36 896.079,156.465" fill-opacity="0" stroke="#000000" stroke-width="2.5" stroke-linecap="round" stroke-linejoin="round"/>
    <path d="M899.101,137.638 L899.101,137.638" fill-opacity="0" stroke="#000000" stroke-width="2.5" stroke-linecap="round" stroke-linejoin="round"/>
    <path d="M910.258,142.751 C897.867,174.62 932.754,111.478 920.485,156.465" fill-opacity="0" stroke="#000000" stroke-width="2.5" stroke-linecap="round" stroke-linejoin="round"/>
    <path d="M791.182,338.134 C790.184,352.189 787.592,370.331 790.791,383.126" fill-opacity="0" stroke="#000000" stroke-width="2.5" stroke-linecap="round" stroke-linejoin="round"/>
    <path d="M785.314,329.527 C805.491,308.517 836.23,347.51 806.44,354.957 C802.784,355.871 801.551,355.545 799.398,353.392" fill-opacity="0" stroke="#000000" stroke-width="2.5" stroke-linecap="round" stroke-linejoin="round"/>
    <path d="M827.567,340.09 C828.958,351.402 818.585,369.465 823.655,379.605" fill-opacity="0" stroke="#000000" stroke-width="2.5" stroke-linecap="round" stroke-linejoin="round"/>
    <path d="M835.391,361.999 C823.988,396.112 853.465,367.708 850.258,358.087 C847.818,350.765 844.232,371.425 847.52,378.822" fill-opacity="0" stroke="#000000" stroke-width="2.5" stroke-linecap="round" stroke-linejoin="round"/>
    <path d="M863.951,363.173 C862.462,361.618 858.701,371.414 861.995,371.78 C866.265,372.255 877,358.965 872.559,357.696 C864.742,355.463 873.032,389.138 871.385,394.081 C867.738,405.022 855.306,398.935 852.606,391.733" fill-opacity="0" stroke="#000000" stroke-width="2.5" stroke-linecap="round" stroke-linejoin="round"/>
    <path d="M885.078,369.433 C884.817,371.259 884.556,373.084 884.296,374.91 C884.296,375.171 884.296,375.432 884.296,375.693" fill-opacity="0" stroke="#000000" stroke-width="2.5" stroke-linecap="round" stroke-linejoin="round"/>
    <path d="M886.643,356.913 L886.643,356.913" fill-opacity="0" stroke="#000000" stroke-width="2.5" stroke-linecap="round" stroke-linejoin="round"/>
    <path d="M899.163,362.391 C890.476,408.462 912.464,322.325 912.464,376.475" fill-opacity="0" stroke="#000000" stroke-width="2.5" stroke-linecap="round" stroke-linejoin="round"/>
    <path d="M773.966,533.586 C772.364,538.398 771.646,543.574 770.819,548.536" fill-opacity="0" stroke="#000000" stroke-width="2.5" stroke-linecap="round" stroke-linejoin="round"/>
    <path d="M768.065,512.341 C795.124,491.244 808.481,539.387 779.474,533.586" fill-opacity="0" stroke="#000000" stroke-width="2.5" stroke-linecap="round" stroke-linejoin="round"/>
    <path d="M804.653,518.636 C806.995,526.898 800.716,542.431 803.473,549.323" fill-opacity="0" stroke="#000000" stroke-width="2.5" stroke-linecap="round" stroke-linejoin="round"/>
    <path d="M815.669,538.7 C821.635,570.695 832.586,519.828 832.586,536.34 C832.586,540.092 832.988,543.789 831.799,547.356" fill-opacity="0" stroke="#000000" stroke-width="2.5" stroke-linecap="round" stroke-linejoin="round"/>
    <path d="M850.684,531.225 C846.591,533.701 842.438,539.018 843.995,544.208 C846.132,551.329 860.914,537.918 858.552,531.619 C852.616,515.788 857.37,557.195 856.585,558.765 C851.62,568.694 838.162,562.388 836.914,553.651" fill-opacity="0" stroke="#000000" stroke-width="2.5" stroke-linecap="round" stroke-linejoin="round"/>
    <path d="M871.928,540.668 C871.928,541.323 871.928,541.979 871.928,542.635" fill-opacity="0" stroke="#000000" stroke-width="2.5" stroke-linecap="round" stroke-linejoin="round"/>
    <path d="M872.322,522.177 L872.322,522.177" fill-opacity="0" stroke="#000000" stroke-width="2.5" stroke-linecap="round" stroke-linejoin="round"/>
    <path d="M885.305,529.258 C886.75,526.808 882.887,543.127 885.698,540.668 C888.279,538.41 898.073,521.473 902.615,533.586 C903.736,536.574 902.889,538.909 901.435,541.454" fill-opacity="0" stroke="#000000" stroke-width="2.5" stroke-linecap="round" stroke-linejoin="round"/>
    <path d="M49.708,523.704 C49.848,525.527 49.902,527.358 50.129,529.172 C53.843,558.885 76.679,561.003 79.99,552.725 C82.337,546.857 76.625,540.104 76.625,534.219" fill-opacity="0" stroke="#000000" stroke-width="2.5" stroke-linecap="round" stroke-linejoin="round"/>
    <path d="M63.167,498.89 C60.942,502.148 62.303,505.644 63.587,508.984 C68.186,520.941 82.443,517.043 77.887,505.199 C74.865,497.342 62.955,492.049 65.69,504.358" fill-opacity="0" stroke="#000000" stroke-width="2.5" stroke-linecap="round" stroke-linejoin="round"/>
    <path d="M68.634,486.693 C65.125,487.222 82.698,488.376 79.149,488.376 C74.999,488.376 63.067,479.742 65.69,474.496 C67.243,471.39 75.983,472.638 76.205,471.973 C76.633,470.689 68.651,466.991 68.214,465.243 C66.946,460.174 78.908,460.436 80.831,461.879" fill-opacity="0" stroke="#000000" stroke-width="2.5" stroke-linecap="round" stroke-linejoin="round"/>
    <path d="M70.737,449.261 C94.539,451.828 56.582,440.987 67.793,432.017 C71.769,428.837 81.393,433.276 81.672,432.438 C82.249,430.709 78.188,431.273 76.625,430.335 C74.063,428.798 70.992,425.804 70.317,422.765 C68.953,416.629 75.022,416.035 79.569,416.035" fill-opacity="0" stroke="#000000" stroke-width="2.5" stroke-linecap="round" stroke-linejoin="round"/>
    <path d="M68.634,384.492 C61.742,401.38 97.125,411.538 76.205,384.912 C75.182,383.61 69.909,377.233 67.793,377.762 C64.557,378.571 78.439,385.971 83.775,381.968" fill-opacity="0" stroke="#000000" stroke-width="2.5" stroke-linecap="round" stroke-linejoin="round"/>
    <path d="M76.205,365.565 C77.186,365.846 79.871,367.128 79.149,366.407 C70.037,357.295 54.139,341.107 82.093,350.424" fill-opacity="0" stroke="#000000" stroke-width="2.5" stroke-linecap="round" stroke-linejoin="round"/>
    <path d="M71.999,319.301 C71.414,321.124 67.949,327.17 69.896,329.395 C75.245,335.508 83.536,330.75 80.831,323.087 C77.763,314.393 66.629,306.275 58.961,302.058 C58.44,301.771 50.943,297.931 50.549,299.113 C49.799,301.365 78.089,306.577 81.252,307.105" fill-opacity="0" stroke="#000000" stroke-width="2.5" stroke-linecap="round" stroke-linejoin="round"/>
    <path d="M58.961,280.608 C67.076,280.088 75.035,282.003 82.934,283.131" fill-opacity="0" stroke="#000000" stroke-width="2.5" stroke-linecap="round" stroke-linejoin="round"/>
    <path d="M77.467,268.411 C80.182,270.04 78.768,269.512 81.672,270.093" fill-opacity="0" stroke="#000000" stroke-width="2.5" stroke-linecap="round" stroke-linejoin="round"/>
    <path d="M64.429,266.729 L64.429,266.729" fill-opacity="0" stroke="#000000" stroke-width="2.5" stroke-linecap="round" stroke-linejoin="round"/>
    <path d="M73.681,258.738 C71.089,251.2 83.5,263.9 84.196,260.42 C84.983,256.483 65.11,249.75 70.317,241.073 C72.822,236.898 82.89,243.391 85.458,244.858" fill-opacity="0" stroke="#000000" stroke-width="2.5" stroke-linecap="round" stroke-linejoin="round"/>
    <path d="M77.467,217.941 C58.881,195.25 82.102,239.793 87.981,228.035 C90.121,223.755 87.883,216.748 88.822,212.053" fill-opacity="0" stroke="#000000" stroke-width="2.5" stroke-linecap="round" stroke-linejoin="round"/>
    <path d="M120.787,544.313 C132.993,543.174 145.284,545.943 157.377,544.734" fill-opacity="0" stroke="#000000" stroke-width="2.5" stroke-linecap="round" stroke-linejoin="round"/>
    <path d="M122.889,541.789 C152.047,522.583 83.421,487.438 125.413,498.89 C144.852,504.192 121.483,497.85 140.133,503.096 C145.501,504.605 152.205,507.302 157.798,507.302" fill-opacity="0" stroke="#000000" stroke-width="2.5" stroke-linecap="round" stroke-linejoin="round"/>
    <path d="M141.816,469.029 C127.136,475.31 148.451,491.512 156.536,485.852 C163.868,480.72 136.539,463.324 136.769,463.141 C139.944,460.6 151.946,463.982 156.115,463.982" fill-opacity="0" stroke="#000000" stroke-width="2.5" stroke-linecap="round" stroke-linejoin="round"/>
    <path d="M142.236,445.897 C167.882,448.156 153.417,443.11 146.021,432.017" fill-opacity="0" stroke="#000000" stroke-width="2.5" stroke-linecap="round" stroke-linejoin="round"/>
    <path d="M142.657,400.894 C124.468,394.081 155.695,433.416 155.695,403.418" fill-opacity="0" stroke="#000000" stroke-width="2.5" stroke-linecap="round" stroke-linejoin="round"/>
    <path d="M147.704,391.221 L147.704,391.221" fill-opacity="0" stroke="#000000" stroke-width="2.5" stroke-linecap="round" stroke-linejoin="round"/>
    <path d="M144.339,389.959 C144.231,390.901 154.854,389.75 154.854,391.221 C154.854,394.019 135.333,380.138 137.189,372.715 C138.821,366.19 153.118,372.058 156.115,373.557" fill-opacity="0" stroke="#000000" stroke-width="2.5" stroke-linecap="round" stroke-linejoin="round"/>
    <path d="M71.999,570.81 C69.604,567.279 66.204,573.863 70.317,572.492 C80.465,569.109 56.907,567.969 70.317,573.333" fill-opacity="0" stroke="#000000" stroke-width="2.5" stroke-linecap="round" stroke-linejoin="round"/>
    <path d="M133.404,570.389 C135.381,570.252 138.666,570.492 140.554,569.548 C144.274,567.688 141.076,568.504 142.236,566.183 C138.398,556.115 128.12,567.024 139.292,567.024" fill-opacity="0" stroke="#000000" stroke-width="2.5" stroke-linecap="round" stroke-linejoin="round"/>
  </g>
</svg>
