<?xml version="1.0" encoding="UTF-8"?>
<!DOCTYPE svg PUBLIC "-//W3C//DTD SVG 1.1//EN" "http://www.w3.org/Graphics/SVG/1.1/DTD/svg11.dtd">
<svg version="1.1" xmlns="http://www.w3.org/2000/svg" xmlns:xlink="http://www.w3.org/1999/xlink" x="0" y="0" width="415.623" height="399.336" viewBox="0, 0, 415.623, 399.336">
  <g id="Layer_1" transform="translate(-188.25, -51.688)">
    <path d="M360.261,62.218 C348.511,59.419 337.512,66.716 328.945,75.245 C292.913,111.114 380.604,126.298 367.418,67.228" fill-opacity="0" stroke="#000000" stroke-width="2" stroke-linecap="round" stroke-linejoin="round"/>
    <path d="M319.103,128.354 C262.215,205.401 300.786,152.403 370.997,152.403" fill-opacity="0" stroke="#000000" stroke-width="2" stroke-linecap="round" stroke-linejoin="round"/>
    <path d="M358.471,135.368 C360.602,147.299 358.696,142.468 362.945,150.399" fill-opacity="0" stroke="#000000" stroke-width="2" stroke-linecap="round" stroke-linejoin="round"/>
    <path d="M318.208,183.467 C316.226,188.982 315.524,193.752 315.524,199.5" fill-opacity="0" stroke="#000000" stroke-width="2" stroke-linecap="round" stroke-linejoin="round"/>
    <path d="M342.366,183.467 C341.769,186.473 341.173,189.479 340.576,192.486 C341.173,193.488 341.769,194.49 342.366,195.492" fill-opacity="0" stroke="#000000" stroke-width="2" stroke-linecap="round" stroke-linejoin="round"/>
    <path d="M322.682,79.253 C329.896,63.077 326.439,70.435 328.945,69.232 C349.152,59.533 319.63,57.798 331.629,71.237 C336.708,76.925 354.703,53.253 347.734,55.204 C347.232,55.344 339.39,62.008 340.576,64.222 C342.789,68.353 354.355,52.799 351.313,56.206 C349.741,57.967 344.893,66.094 348.629,69.232 C355.052,74.627 358.068,53.588 360.261,54.202 C363.741,55.176 361.018,69.29 368.313,66.226 C372.465,64.483 380.808,52.224 377.261,55.204 C375.005,57.098 365.165,70.717 369.208,75.245 C371.41,77.711 379.548,69.12 378.155,72.239 C371.96,86.115 374.013,88.867 374.576,93.282" fill-opacity="0" stroke="#000000" stroke-width="2" stroke-linecap="round" stroke-linejoin="round"/>
    <path d="M319.998,78.251 C316.008,92.252 325.184,56.714 316.419,81.257" fill-opacity="0" stroke="#000000" stroke-width="2" stroke-linecap="round" stroke-linejoin="round"/>
    <path d="M342.366,89.274 L342.366,89.274" fill-opacity="0" stroke="#000000" stroke-width="2" stroke-linecap="round" stroke-linejoin="round"/>
    <path d="M361.155,86.267 L361.155,86.267" fill-opacity="0" stroke="#000000" stroke-width="2" stroke-linecap="round" stroke-linejoin="round"/>
    <path d="M489.997,63.22 C482.649,65.26 475.953,67.055 469.418,71.237 C435.887,92.696 485.182,129.708 500.734,83.261 C503.946,73.67 501.48,68.453 494.471,63.22" fill-opacity="0" stroke="#000000" stroke-width="2" stroke-linecap="round" stroke-linejoin="round"/>
    <path d="M462.26,114.325 C465.536,90.019 460.186,104.976 461.366,105.307 C464.945,106.309 466.659,90.36 464.05,93.282 C455.413,102.954 459.576,100.747 459.576,101.298 C459.576,103.97 457.889,111.204 459.576,109.315 C459.863,108.994 465.21,94.934 465.839,95.286 C469.307,97.228 462.812,111.025 465.839,108.313 C487.106,89.259 460.168,108.652 472.103,95.286 C475.085,91.946 467.331,105.975 470.313,109.315 C473.143,112.484 471.68,97.29 475.682,97.29 C481.38,97.29 472.09,122.383 473.892,116.329 C475.836,109.797 476.702,92.421 481.05,97.29 C483.8,100.37 477.406,113.396 480.155,110.317 C499.141,89.054 491.483,111.149 495.366,113.323 C496.911,114.188 498.706,97.29 499.839,97.29 C505.048,97.29 496.26,120.158 496.26,114.325 C496.26,113.265 498.618,102.847 497.155,102.3 C493.467,100.923 495.407,114.353 490.892,111.319 C473.043,99.325 474.296,112.184 467.629,110.317 C466.183,109.912 469.163,98.922 466.734,97.29 C458.466,91.734 447.601,104.225 449.734,92.28" fill-opacity="0" stroke="#000000" stroke-width="2" stroke-linecap="round" stroke-linejoin="round"/>
    <path d="M496.26,106.309 C486.663,87.431 492.145,113.122 493.576,112.321 C494.64,111.725 486.478,98.492 485.524,99.294 C483.141,101.296 485.7,117.868 486.418,117.331 C513.353,97.221 454.867,108.497 479.26,115.327 C479.64,115.434 481.01,105.07 480.155,104.305 C479.482,103.702 456.892,118.784 456.892,112.321 C456.892,109.303 464.875,108.156 463.155,104.305 C462.433,102.687 448.909,109.627 448.839,109.315 C446.68,99.643 461.81,98.22 449.734,96.288" fill-opacity="0" stroke="#000000" stroke-width="2" stroke-linecap="round" stroke-linejoin="round"/>
    <path d="M479.26,84.263 L479.26,84.263" fill-opacity="0" stroke="#000000" stroke-width="2" stroke-linecap="round" stroke-linejoin="round"/>
    <path d="M473.892,85.265 L473.892,85.265" fill-opacity="0" stroke="#000000" stroke-width="2" stroke-linecap="round" stroke-linejoin="round"/>
    <path d="M244.126,382.882 C226.379,375.704 179.507,416.471 193.231,438.357 C219.672,480.524 282.819,390.273 253.45,382.167 C247.766,380.598 240.685,379.563 235.19,382.596 C212.58,395.077 235.895,422.003 254.227,412.478" fill-opacity="0" stroke="#000000" stroke-width="2" stroke-linecap="round" stroke-linejoin="round"/>
    <path d="M251.508,388.315 C255.297,385.158 257.479,388.345 254.616,392.032" fill-opacity="0" stroke="#000000" stroke-width="2" stroke-linecap="round" stroke-linejoin="round"/>
    <path d="M242.183,390.174 C241.883,390.025 242.788,389.888 243.09,389.745" fill-opacity="0" stroke="#000000" stroke-width="2" stroke-linecap="round" stroke-linejoin="round"/>
    <path d="M249.306,398.752 C251.518,399.667 248.29,397.631 249.824,399.324" fill-opacity="0" stroke="#000000" stroke-width="2" stroke-linecap="round" stroke-linejoin="round"/>
    <path d="M235.967,395.035 C236.619,400.355 239.289,402.274 243.738,401.183" fill-opacity="0" stroke="#000000" stroke-width="2" stroke-linecap="round" stroke-linejoin="round"/>
    <path d="M212.398,397.323 C212.572,414.617 233.249,415.354 244.774,416.768" fill-opacity="0" stroke="#000000" stroke-width="2" stroke-linecap="round" stroke-linejoin="round"/>
    <path d="M201.519,411.049 C208.895,424.928 231.46,425.096 244.256,421.772" fill-opacity="0" stroke="#000000" stroke-width="2" stroke-linecap="round" stroke-linejoin="round"/>
    <path d="M195.821,421.629 C207.815,434.804 229.312,433.25 243.867,426.633" fill-opacity="0" stroke="#000000" stroke-width="2" stroke-linecap="round" stroke-linejoin="round"/>
    <path d="M193.102,435.784 C205.461,441.485 223.775,441.24 236.485,436.07" fill-opacity="0" stroke="#000000" stroke-width="2" stroke-linecap="round" stroke-linejoin="round"/>
    <path d="M458.578,123.43 C455.039,145.267 456.241,167.45 456.241,189.44" fill-opacity="0" stroke="#000000" stroke-width="2" stroke-linecap="round" stroke-linejoin="round"/>
    <path d="M460.039,194.491 C463.895,194.766 467.682,193.473 471.436,192.807" fill-opacity="0" stroke="#000000" stroke-width="2" stroke-linecap="round" stroke-linejoin="round"/>
    <path d="M476.988,168.559 C474.504,173.807 474.066,178.925 474.066,184.388" fill-opacity="0" stroke="#000000" stroke-width="2" stroke-linecap="round" stroke-linejoin="round"/>
    <path d="M480.495,171.59 C482.708,177.669 485.169,183.643 487.216,189.776" fill-opacity="0" stroke="#000000" stroke-width="2" stroke-linecap="round" stroke-linejoin="round"/>
    <path d="M491.307,123.766 C494.568,145.78 497.338,167.081 495.398,189.44" fill-opacity="0" stroke="#000000" stroke-width="2" stroke-linecap="round" stroke-linejoin="round"/>
    <path d="M466.468,155.087 C477.667,159.276 489.097,158.951 500.658,158.119" fill-opacity="0" stroke="#000000" stroke-width="2" stroke-linecap="round" stroke-linejoin="round"/>
    <path d="M470.267,125.114 C473.456,139.294 474.834,138.113 480.787,127.134" fill-opacity="0" stroke="#000000" stroke-width="2" stroke-linecap="round" stroke-linejoin="round"/>
    <path d="M460.624,153.74 C461.838,155.471 463.545,154.414 465.007,154.751" fill-opacity="0" stroke="#000000" stroke-width="2" stroke-linecap="round" stroke-linejoin="round"/>
    <path d="M463.838,163.17 C464.233,162.649 464.812,162.497 465.299,162.16" fill-opacity="0" stroke="#000000" stroke-width="2" stroke-linecap="round" stroke-linejoin="round"/>
    <path d="M490.723,168.222 L490.723,168.222" fill-opacity="0" stroke="#000000" stroke-width="2" stroke-linecap="round" stroke-linejoin="round"/>
    <path d="M333.507,122.756 C336.958,138.498 349.578,122.085 353.963,115.347" fill-opacity="0" stroke="#000000" stroke-width="2" stroke-linecap="round" stroke-linejoin="round"/>
    <path d="M355.984,382.882 C338.237,375.704 291.365,416.471 305.089,438.357 C331.53,480.524 394.676,390.273 365.308,382.167 C359.624,380.598 352.542,379.563 347.048,382.596 C324.438,395.077 347.753,422.003 366.085,412.478" fill-opacity="0" stroke="#000000" stroke-width="2" stroke-linecap="round" stroke-linejoin="round"/>
    <path d="M363.365,388.315 C367.155,385.158 369.337,388.345 366.473,392.032" fill-opacity="0" stroke="#000000" stroke-width="2" stroke-linecap="round" stroke-linejoin="round"/>
    <path d="M354.041,390.174 C353.741,390.025 354.646,389.888 354.948,389.745" fill-opacity="0" stroke="#000000" stroke-width="2" stroke-linecap="round" stroke-linejoin="round"/>
    <path d="M361.164,398.752 C363.376,399.667 360.148,397.631 361.682,399.324" fill-opacity="0" stroke="#000000" stroke-width="2" stroke-linecap="round" stroke-linejoin="round"/>
    <path d="M347.825,395.035 C348.477,400.355 351.147,402.274 355.595,401.183" fill-opacity="0" stroke="#000000" stroke-width="2" stroke-linecap="round" stroke-linejoin="round"/>
    <path d="M324.255,397.323 C324.429,414.617 345.107,415.354 356.631,416.768" fill-opacity="0" stroke="#000000" stroke-width="2" stroke-linecap="round" stroke-linejoin="round"/>
    <path d="M313.377,411.049 C320.752,424.928 343.318,425.096 356.113,421.772" fill-opacity="0" stroke="#000000" stroke-width="2" stroke-linecap="round" stroke-linejoin="round"/>
    <path d="M307.679,421.629 C319.673,434.804 341.17,433.25 355.725,426.633" fill-opacity="0" stroke="#000000" stroke-width="2" stroke-linecap="round" stroke-linejoin="round"/>
    <path d="M304.959,435.784 C317.319,441.485 335.633,441.24 348.343,436.07" fill-opacity="0" stroke="#000000" stroke-width="2" stroke-linecap="round" stroke-linejoin="round"/>
    <path d="M463.401,382.882 C445.654,375.704 398.783,416.471 412.506,438.357 C438.948,480.524 502.094,390.273 472.725,382.167 C467.041,380.598 459.96,379.563 454.465,382.596 C431.855,395.077 455.171,422.003 473.502,412.478" fill-opacity="0" stroke="#000000" stroke-width="2" stroke-linecap="round" stroke-linejoin="round"/>
    <path d="M470.783,388.315 C474.572,385.158 476.754,388.345 473.891,392.032" fill-opacity="0" stroke="#000000" stroke-width="2" stroke-linecap="round" stroke-linejoin="round"/>
    <path d="M461.459,390.174 C461.159,390.025 462.063,389.888 462.365,389.745" fill-opacity="0" stroke="#000000" stroke-width="2" stroke-linecap="round" stroke-linejoin="round"/>
    <path d="M468.581,398.752 C470.793,399.667 467.566,397.631 469.099,399.324" fill-opacity="0" stroke="#000000" stroke-width="2" stroke-linecap="round" stroke-linejoin="round"/>
    <path d="M455.242,395.035 C455.894,400.355 458.565,402.274 463.013,401.183" fill-opacity="0" stroke="#000000" stroke-width="2" stroke-linecap="round" stroke-linejoin="round"/>
    <path d="M431.673,397.323 C431.847,414.617 452.525,415.354 464.049,416.768" fill-opacity="0" stroke="#000000" stroke-width="2" stroke-linecap="round" stroke-linejoin="round"/>
    <path d="M420.795,411.049 C428.17,424.928 450.735,425.096 463.531,421.772" fill-opacity="0" stroke="#000000" stroke-width="2" stroke-linecap="round" stroke-linejoin="round"/>
    <path d="M415.096,421.629 C427.09,434.804 448.587,433.25 463.142,426.633" fill-opacity="0" stroke="#000000" stroke-width="2" stroke-linecap="round" stroke-linejoin="round"/>
    <path d="M412.377,435.784 C424.737,441.485 443.051,441.24 455.761,436.07" fill-opacity="0" stroke="#000000" stroke-width="2" stroke-linecap="round" stroke-linejoin="round"/>
    <path d="M585.428,382.882 C567.681,375.704 520.81,416.471 534.533,438.357 C560.974,480.524 624.121,390.273 594.752,382.167 C589.068,380.598 581.987,379.563 576.492,382.596 C553.882,395.077 577.198,422.003 595.529,412.478" fill-opacity="0" stroke="#000000" stroke-width="2" stroke-linecap="round" stroke-linejoin="round"/>
    <path d="M592.81,388.315 C596.599,385.158 598.781,388.345 595.918,392.032" fill-opacity="0" stroke="#000000" stroke-width="2" stroke-linecap="round" stroke-linejoin="round"/>
    <path d="M583.486,390.174 C583.186,390.025 584.09,389.888 584.392,389.745" fill-opacity="0" stroke="#000000" stroke-width="2" stroke-linecap="round" stroke-linejoin="round"/>
    <path d="M590.608,398.752 C592.82,399.667 589.593,397.631 591.126,399.324" fill-opacity="0" stroke="#000000" stroke-width="2" stroke-linecap="round" stroke-linejoin="round"/>
    <path d="M577.269,395.035 C577.921,400.355 580.592,402.274 585.04,401.183" fill-opacity="0" stroke="#000000" stroke-width="2" stroke-linecap="round" stroke-linejoin="round"/>
    <path d="M553.7,397.323 C553.874,414.617 574.552,415.354 586.076,416.768" fill-opacity="0" stroke="#000000" stroke-width="2" stroke-linecap="round" stroke-linejoin="round"/>
    <path d="M542.822,411.049 C550.197,424.928 572.762,425.096 585.558,421.772" fill-opacity="0" stroke="#000000" stroke-width="2" stroke-linecap="round" stroke-linejoin="round"/>
    <path d="M537.123,421.629 C549.117,434.804 570.614,433.25 585.169,426.633" fill-opacity="0" stroke="#000000" stroke-width="2" stroke-linecap="round" stroke-linejoin="round"/>
    <path d="M534.404,435.784 C546.764,441.485 565.078,441.24 577.787,436.07" fill-opacity="0" stroke="#000000" stroke-width="2" stroke-linecap="round" stroke-linejoin="round"/>
    <path d="M207.5,329.5 L207.5,330.5" fill-opacity="0" stroke="#000000" stroke-width="1"/>
    <path d="M239.852,335.5 L586.076,335.5" fill-opacity="0" stroke="#000000" stroke-width="2"/>
    <path d="M322.682,252.399 L480.787,252.399" fill-opacity="0" stroke="#000000" stroke-width="2"/>
    <path d="M353.963,366.5 L353.963,335.5" fill-opacity="0" stroke="#000000" stroke-width="2"/>
    <path d="M459.128,366.5 L459.128,335.5" fill-opacity="0" stroke="#000000" stroke-width="2"/>
    <path d="M586.076,366.5 L586.076,335.5" fill-opacity="0" stroke="#000000" stroke-width="2"/>
    <path d="M400.5,335.5 L400.5,252.399" fill-opacity="0" stroke="#000000" stroke-width="2"/>
    <path d="M239.852,366.5 L239.852,335.5" fill-opacity="0" stroke="#000000" stroke-width="2"/>
    <path d="M324.255,252.399 L324.255,221.399" fill-opacity="0" stroke="#000000" stroke-width="2"/>
    <path d="M480.787,252.399 L480.787,221.399" fill-opacity="0" stroke="#000000" stroke-width="2"/>
  </g>
</svg>
