<?xml version="1.0" encoding="UTF-8"?>
<!DOCTYPE svg PUBLIC "-//W3C//DTD SVG 1.1//EN" "http://www.w3.org/Graphics/SVG/1.1/DTD/svg11.dtd">
<svg version="1.1" xmlns="http://www.w3.org/2000/svg" xmlns:xlink="http://www.w3.org/1999/xlink" x="0" y="0" width="623.214" height="348.752" viewBox="0, 0, 623.214, 348.752">
  <g id="Maven_Project_Kopieren" transform="translate(-48.191, -119.834)">
    <path d="M70.74,124.242 C62.91,125.293 54.468,128.747 51.621,136.813 C43.231,160.584 73.862,174.293 88.549,154.098 C99.216,139.431 85.907,114.505 70.652,123.893" fill-opacity="0" stroke="#000000" stroke-width="2.5" stroke-linecap="round" stroke-linejoin="round"/>
    <path d="M358.74,124.242 C350.91,125.293 342.468,128.747 339.621,136.813 C331.231,160.584 361.862,174.293 376.549,154.098 C387.216,139.431 373.907,114.505 358.652,123.893" fill-opacity="0" stroke="#000000" stroke-width="2.5" stroke-linecap="round" stroke-linejoin="round"/>
    <path d="M358.74,234.241 C350.911,235.292 342.468,238.746 339.621,246.813 C331.231,270.584 361.862,284.293 376.549,264.098 C387.216,249.431 373.908,224.505 358.653,233.892" fill-opacity="0" stroke="#000000" stroke-width="2.5" stroke-linecap="round" stroke-linejoin="round"/>
    <path d="M70.739,234.241 C62.91,235.292 54.468,238.746 51.621,246.812 C43.231,270.584 73.862,284.292 88.549,264.098 C99.216,249.43 85.907,224.504 70.652,233.892" fill-opacity="0" stroke="#000000" stroke-width="2.5" stroke-linecap="round" stroke-linejoin="round"/>
    <path d="M502.073,339.574 C494.244,340.625 485.801,344.079 482.954,352.146 C474.564,375.917 505.195,389.626 519.882,369.431 C530.549,354.764 517.24,329.838 501.986,339.225" fill-opacity="0" stroke="#000000" stroke-width="2.5" stroke-linecap="round" stroke-linejoin="round"/>
    <path d="M217.651,234.241 C209.822,235.292 201.38,238.746 198.533,246.813 C190.143,270.584 220.773,284.293 235.46,264.098 C246.127,249.431 232.819,224.505 217.564,233.892" fill-opacity="0" stroke="#000000" stroke-width="2.5" stroke-linecap="round" stroke-linejoin="round"/>
    <path d="M217.651,426.951 C209.821,428.002 201.379,431.456 198.532,439.522 C190.142,463.293 220.773,477.002 235.46,456.807 C246.127,442.14 232.818,417.214 217.563,426.602" fill-opacity="0" stroke="#000000" stroke-width="2.5" stroke-linecap="round" stroke-linejoin="round"/>
    <path d="M358.739,339.574 C350.91,340.625 342.468,344.079 339.621,352.146 C331.231,375.917 361.862,389.626 376.549,369.431 C387.216,354.764 373.907,329.838 358.652,339.225" fill-opacity="0" stroke="#000000" stroke-width="2.5" stroke-linecap="round" stroke-linejoin="round"/>
    <path d="M70.739,339.574 C62.91,340.625 54.468,344.079 51.621,352.146 C43.231,375.917 73.862,389.626 88.549,369.431 C99.216,354.764 85.907,329.838 70.652,339.225" fill-opacity="0" stroke="#000000" stroke-width="2.5" stroke-linecap="round" stroke-linejoin="round"/>
    <path d="M217.651,339.574 C209.822,340.625 201.379,344.079 198.532,352.146 C190.142,375.917 220.773,389.626 235.46,369.431 C246.127,354.764 232.818,329.838 217.564,339.225" fill-opacity="0" stroke="#000000" stroke-width="2.5" stroke-linecap="round" stroke-linejoin="round"/>
    <path d="M647.746,339.574 C639.916,340.625 631.474,344.079 628.627,352.146 C620.237,375.917 650.868,389.626 665.555,369.431 C676.222,354.764 662.913,329.838 647.658,339.225" fill-opacity="0" stroke="#000000" stroke-width="2.5" stroke-linecap="round" stroke-linejoin="round"/>
    <path d="M647.746,234.241 C639.917,235.292 631.475,238.746 628.628,246.813 C620.238,270.584 650.868,284.293 665.555,264.098 C676.223,249.431 662.914,224.505 647.659,233.892" fill-opacity="0" stroke="#000000" stroke-width="2.5" stroke-linecap="round" stroke-linejoin="round"/>
    <g>
      <path d="M190.695,443.885 C156.837,425.786 123.187,406.336 91.252,385.093" fill-opacity="0" stroke="#000000" stroke-width="2.5" stroke-linecap="round" stroke-linejoin="round"/>
      <path d="M89.84,393.33 C86.661,382.088 80.061,376.264 96.834,380.703" fill-opacity="0" stroke="#000000" stroke-width="2.5" stroke-linecap="round" stroke-linejoin="round"/>
    </g>
    <g>
      <path d="M481.524,337.167 C448.067,318.339 414.845,298.166 383.378,276.237" fill-opacity="0" stroke="#000000" stroke-width="2.5" stroke-linecap="round" stroke-linejoin="round"/>
      <path d="M381.788,284.441 C378.853,273.133 372.381,267.167 389.054,271.969" fill-opacity="0" stroke="#000000" stroke-width="2.5" stroke-linecap="round" stroke-linejoin="round"/>
    </g>
    <g>
      <path d="M188.701,270.872 C162.597,292.659 135.37,313.707 107.082,332.527" fill-opacity="0" stroke="#000000" stroke-width="2.5" stroke-linecap="round" stroke-linejoin="round"/>
      <path d="M113.895,337.167 C103.059,335.252 95.952,338.547 104.907,325.875" fill-opacity="0" stroke="#000000" stroke-width="2.5" stroke-linecap="round" stroke-linejoin="round"/>
    </g>
    <g>
      <path d="M218.596,421.209 C217.015,409.563 216.702,397.763 218.806,386.135" fill-opacity="0" stroke="#000000" stroke-width="2.5" stroke-linecap="round" stroke-linejoin="round"/>
      <path d="M210.991,387.034 C219.066,384.471 220.737,381.847 225.421,386.919" fill-opacity="0" stroke="#000000" stroke-width="2.5" stroke-linecap="round" stroke-linejoin="round"/>
    </g>
    <g>
      <path d="M71.685,331.16 C70.104,316.591 69.791,301.828 71.895,287.282" fill-opacity="0" stroke="#000000" stroke-width="2.5" stroke-linecap="round" stroke-linejoin="round"/>
      <path d="M64.08,288.407 C72.155,285.2 73.826,281.918 78.51,288.263" fill-opacity="0" stroke="#000000" stroke-width="2.5" stroke-linecap="round" stroke-linejoin="round"/>
    </g>
    <g>
      <path d="M71.685,227.493 C70.104,209.165 69.791,190.595 71.895,172.296" fill-opacity="0" stroke="#000000" stroke-width="2.5" stroke-linecap="round" stroke-linejoin="round"/>
      <path d="M64.08,173.711 C72.155,169.677 73.826,165.548 78.51,173.53" fill-opacity="0" stroke="#000000" stroke-width="2.5" stroke-linecap="round" stroke-linejoin="round"/>
    </g>
    <g>
      <path d="M358.906,168.978 C360.487,187.305 360.799,205.876 358.696,224.174" fill-opacity="0" stroke="#000000" stroke-width="2.5" stroke-linecap="round" stroke-linejoin="round"/>
      <path d="M366.51,222.759 C358.435,226.794 356.764,230.923 352.08,222.941" fill-opacity="0" stroke="#000000" stroke-width="2.5" stroke-linecap="round" stroke-linejoin="round"/>
    </g>
    <g>
      <path d="M330.028,252.465 C303.557,254.046 276.734,254.358 250.305,252.255" fill-opacity="0" stroke="#000000" stroke-width="2.5" stroke-linecap="round" stroke-linejoin="round"/>
      <path d="M252.35,260.069 C246.523,251.994 240.559,250.324 252.088,245.64" fill-opacity="0" stroke="#000000" stroke-width="2.5" stroke-linecap="round" stroke-linejoin="round"/>
    </g>
    <g>
      <path d="M330.028,357.799 C303.557,359.38 276.734,359.692 250.305,357.589" fill-opacity="0" stroke="#000000" stroke-width="2.5" stroke-linecap="round" stroke-linejoin="round"/>
      <path d="M252.35,365.403 C246.523,357.328 240.559,355.658 252.088,350.974" fill-opacity="0" stroke="#000000" stroke-width="2.5" stroke-linecap="round" stroke-linejoin="round"/>
    </g>
    <g>
      <path d="M190.695,357.799 C161.927,359.38 132.777,359.692 104.055,357.589" fill-opacity="0" stroke="#000000" stroke-width="2.5" stroke-linecap="round" stroke-linejoin="round"/>
      <path d="M106.276,365.403 C99.944,357.328 93.462,355.658 105.992,350.974" fill-opacity="0" stroke="#000000" stroke-width="2.5" stroke-linecap="round" stroke-linejoin="round"/>
    </g>
    <g>
      <path d="M472.857,357.799 C446.386,359.38 419.563,359.692 393.135,357.589" fill-opacity="0" stroke="#000000" stroke-width="2.5" stroke-linecap="round" stroke-linejoin="round"/>
      <path d="M395.179,365.403 C389.352,357.328 383.388,355.658 394.917,350.974" fill-opacity="0" stroke="#000000" stroke-width="2.5" stroke-linecap="round" stroke-linejoin="round"/>
    </g>
    <g>
      <path d="M615.687,357.799 C589.215,359.38 562.393,359.692 535.964,357.589" fill-opacity="0" stroke="#000000" stroke-width="2.5" stroke-linecap="round" stroke-linejoin="round"/>
      <path d="M538.008,365.403 C532.182,357.328 526.217,355.658 537.746,350.974" fill-opacity="0" stroke="#000000" stroke-width="2.5" stroke-linecap="round" stroke-linejoin="round"/>
    </g>
    <g>
      <path d="M616.857,252.465 C545.283,254.046 472.762,254.359 401.301,252.255" fill-opacity="0" stroke="#000000" stroke-width="2.5" stroke-linecap="round" stroke-linejoin="round"/>
      <path d="M406.828,260.069 C391.074,251.995 374.948,250.324 406.122,245.64" fill-opacity="0" stroke="#000000" stroke-width="2.5" stroke-linecap="round" stroke-linejoin="round"/>
    </g>
  </g>
</svg>
