<?xml version="1.0" encoding="UTF-8"?>
<!DOCTYPE svg PUBLIC "-//W3C//DTD SVG 1.1//EN" "http://www.w3.org/Graphics/SVG/1.1/DTD/svg11.dtd">
<svg version="1.1" xmlns="http://www.w3.org/2000/svg" xmlns:xlink="http://www.w3.org/1999/xlink" x="0" y="0" width="732.878" height="605.437" viewBox="0, 0, 732.878, 605.437">
  <g id="Layer_1" transform="translate(-95.199, -70.624)">
    <g>
      <path d="M395.769,81.525 C397.466,118.443 395,155.151 395,191.976" fill-opacity="0" stroke="#000000" stroke-width="2" stroke-linecap="round" stroke-linejoin="round"/>
      <path d="M406.146,83.456 C448.007,77.027 487.014,89.561 527.979,82.297 C538.275,80.471 566.753,67.75 576.021,75.732 C586.569,84.817 574.558,131.563 572.177,142.929 C569.266,156.826 567.336,172.365 569.103,186.569 C569.242,187.688 570.29,191.74 569.487,192.748 C565.192,198.143 536.478,193.521 529.901,193.521 C505.39,193.521 480.947,200.858 456.493,200.858 C434.481,200.858 414.804,194.098 397.306,196.61" fill-opacity="0" stroke="#000000" stroke-width="2" stroke-linecap="round" stroke-linejoin="round"/>
    </g>
    <g>
      <path d="M283.761,321.013 C285.458,357.931 282.992,394.64 282.992,431.464" fill-opacity="0" stroke="#000000" stroke-width="2" stroke-linecap="round" stroke-linejoin="round"/>
      <path d="M294.138,322.944 C335.999,316.516 375.006,329.05 415.971,321.785 C426.268,319.96 454.746,307.239 464.013,315.22 C474.561,324.306 462.551,371.052 460.169,382.418 C457.258,396.314 455.328,411.854 457.095,426.058 C457.234,427.177 458.282,431.229 457.479,432.237 C453.184,437.632 424.47,433.009 417.893,433.009 C393.382,433.009 368.939,440.347 344.485,440.347 C322.473,440.347 302.796,433.587 285.298,436.099" fill-opacity="0" stroke="#000000" stroke-width="2" stroke-linecap="round" stroke-linejoin="round"/>
    </g>
    <g>
      <path d="M642.053,287.554 C643.751,324.472 641.284,361.18 641.284,398.005" fill-opacity="0" stroke="#000000" stroke-width="2" stroke-linecap="round" stroke-linejoin="round"/>
      <path d="M652.43,289.485 C694.291,283.057 733.298,295.59 774.263,288.326 C784.56,286.5 813.038,273.779 822.305,281.761 C832.854,290.847 820.843,337.593 818.461,348.959 C815.55,362.855 813.62,378.395 815.387,392.599 C815.526,393.718 816.574,397.769 815.771,398.778 C811.476,404.173 782.763,399.55 776.185,399.55 C751.674,399.55 727.231,406.888 702.777,406.888 C680.765,406.888 661.088,400.128 643.59,402.64" fill-opacity="0" stroke="#000000" stroke-width="2" stroke-linecap="round" stroke-linejoin="round"/>
    </g>
    <g>
      <path d="M98.468,555.227 C100.165,592.146 97.699,628.854 97.699,665.679" fill-opacity="0" stroke="#000000" stroke-width="2" stroke-linecap="round" stroke-linejoin="round"/>
      <path d="M108.845,557.158 C150.706,550.73 189.713,563.264 230.678,556 C240.975,554.174 269.453,541.453 278.72,549.435 C289.269,558.52 277.258,605.266 274.876,616.632 C271.965,630.529 270.035,646.068 271.802,660.272 C271.941,661.391 272.989,665.443 272.186,666.451 C267.891,671.846 239.177,667.224 232.6,667.224 C208.089,667.224 183.646,674.561 159.192,674.561 C137.18,674.561 117.503,667.801 100.005,670.313" fill-opacity="0" stroke="#000000" stroke-width="2" stroke-linecap="round" stroke-linejoin="round"/>
    </g>
    <g>
      <path d="M599.532,547.56 C601.229,584.478 598.763,621.186 598.763,658.011" fill-opacity="0" stroke="#000000" stroke-width="2" stroke-linecap="round" stroke-linejoin="round"/>
      <path d="M609.909,549.491 C651.77,543.063 690.777,555.596 731.742,548.332 C742.039,546.506 770.517,533.785 779.784,541.767 C790.333,550.853 778.322,597.599 775.94,608.965 C773.029,622.861 771.099,638.401 772.866,652.604 C773.005,653.724 774.053,657.775 773.25,658.784 C768.955,664.179 740.241,659.556 733.664,659.556 C709.153,659.556 684.71,666.894 660.256,666.894 C638.244,666.894 618.567,660.134 601.069,662.645" fill-opacity="0" stroke="#000000" stroke-width="2" stroke-linecap="round" stroke-linejoin="round"/>
    </g>
    <g>
      <path d="M366.712,547.56 C368.409,584.478 365.943,621.186 365.943,658.011" fill-opacity="0" stroke="#000000" stroke-width="2" stroke-linecap="round" stroke-linejoin="round"/>
      <path d="M377.089,549.491 C418.95,543.063 457.957,555.596 498.922,548.332 C509.218,546.506 537.696,533.785 546.964,541.767 C557.512,550.853 545.502,597.599 543.12,608.965 C540.209,622.861 538.279,638.401 540.046,652.604 C540.185,653.724 541.233,657.775 540.43,658.784 C536.135,664.179 507.421,659.556 500.844,659.556 C476.333,659.556 451.89,666.894 427.436,666.894 C405.424,666.894 385.747,660.134 368.249,662.645" fill-opacity="0" stroke="#000000" stroke-width="2" stroke-linecap="round" stroke-linejoin="round"/>
    </g>
    <g>
      <path d="M201.952,546.827 L292.442,462.109" fill-opacity="0" stroke="#000000" stroke-width="3.5"/>
      <path d="M295.517,465.394 L301.202,453.908 L289.366,458.824 z" fill="#000000" fill-opacity="1" stroke="#000000" stroke-width="3.5" stroke-opacity="1"/>
    </g>
    <g>
      <path d="M420.831,539.16 L379.132,464.844" fill-opacity="0" stroke="#000000" stroke-width="3.5"/>
      <path d="M383.056,462.642 L373.26,454.379 L375.208,467.046 z" fill="#000000" fill-opacity="1" stroke="#000000" stroke-width="3.5" stroke-opacity="1"/>
    </g>
    <g>
      <path d="M696.172,546.827 L481.422,446.485" fill-opacity="0" stroke="#000000" stroke-width="3.5"/>
      <path d="M483.327,442.408 L470.55,441.405 L479.517,450.562 z" fill="#000000" fill-opacity="1" stroke="#000000" stroke-width="3.5" stroke-opacity="1"/>
    </g>
    <g>
      <path d="M372.036,312.613 L448.331,218.779" fill-opacity="0" stroke="#000000" stroke-width="3.5"/>
      <path d="M451.823,221.618 L455.902,209.469 L444.84,215.94 z" fill="#000000" fill-opacity="1" stroke="#000000" stroke-width="3.5" stroke-opacity="1"/>
    </g>
    <g>
      <path d="M682.231,288.388 L524.354,207.472" fill-opacity="0" stroke="#000000" stroke-width="3.5"/>
      <path d="M526.406,203.467 L513.674,201.999 L522.301,211.477 z" fill="#000000" fill-opacity="1" stroke="#000000" stroke-width="3.5" stroke-opacity="1"/>
    </g>
    <text transform="matrix(1, 0, 0, 1, 449.872, 111.5)">
      <tspan x="-40.872" y="8" font-family="HelveticaNeue-Bold" font-size="24" fill="#000000">Vehicle</tspan>
    </text>
    <text transform="matrix(1, 0, 0, 1, 368.899, 381.5)">
      <tspan x="-66.372" y="-21" font-family="HelveticaNeue-Bold" font-size="24" fill="#000000">Passenger</tspan>
      <tspan x="-66.372" y="8" font-family="HelveticaNeue-Bold" font-size="24" fill="#000000">Car</tspan>
    </text>
    <text transform="matrix(1, 0, 0, 1, 724.899, 348.5)">
      <tspan x="-66.372" y="-21" font-family="HelveticaNeue-Bold" font-size="24" fill="#000000">Lorry</tspan>
    </text>
    <text transform="matrix(1, 0, 0, 1, 181.899, 614.5)">
      <tspan x="-66.372" y="-21" font-family="HelveticaNeue-Bold" font-size="24" fill="#000000">SUV</tspan>
    </text>
    <text transform="matrix(1, 0, 0, 1, 449.872, 602.527)">
      <tspan x="-66.372" y="-21" font-family="HelveticaNeue-Bold" font-size="24" fill="#000000">Sports</tspan>
      <tspan x="-66.372" y="8" font-family="HelveticaNeue-Bold" font-size="24" fill="#000000">Car</tspan>
    </text>
    <text transform="matrix(1, 0, 0, 1, 681.872, 602.527)">
      <tspan x="-66.372" y="-21" font-family="HelveticaNeue-Bold" font-size="24" fill="#000000">Van</tspan>
    </text>
  </g>
</svg>
