<?xml version="1.0" encoding="UTF-8"?>
<!DOCTYPE svg PUBLIC "-//W3C//DTD SVG 1.1//EN" "http://www.w3.org/Graphics/SVG/1.1/DTD/svg11.dtd">
<svg version="1.1" xmlns="http://www.w3.org/2000/svg" xmlns:xlink="http://www.w3.org/1999/xlink" x="0" y="0" width="841.89" height="595.276" viewBox="0, 0, 841.89, 595.276">
  <g id="Maven_Project">
    <path d="M721.48,52.881 C713.65,53.932 705.208,57.386 702.361,65.452 C693.971,89.223 724.602,102.932 739.289,82.737 C749.956,68.07 736.647,43.144 721.392,52.532" fill-opacity="0" stroke="#000000" stroke-width="2.5" stroke-linecap="round" stroke-linejoin="round"/>
    <path d="M576.813,51.547 C568.984,52.598 560.541,56.052 557.694,64.119 C549.304,87.89 579.935,101.599 594.622,81.404 C605.289,66.737 591.981,41.811 576.726,51.198" fill-opacity="0" stroke="#000000" stroke-width="2.5" stroke-linecap="round" stroke-linejoin="round"/>
    <path d="M432.146,50.214 C424.317,51.265 415.875,54.719 413.028,62.785 C404.638,86.557 435.269,100.265 449.956,80.071 C460.623,65.403 447.314,40.477 432.059,49.865" fill-opacity="0" stroke="#000000" stroke-width="2.5" stroke-linecap="round" stroke-linejoin="round"/>
    <path d="M429.48,145.547 C421.651,146.598 413.208,150.052 410.361,158.119 C401.971,181.89 432.602,195.599 447.289,175.404 C457.956,160.737 444.647,135.811 429.393,145.198" fill-opacity="0" stroke="#000000" stroke-width="2.5" stroke-linecap="round" stroke-linejoin="round"/>
    <path d="M576.813,143.547 C568.984,144.598 560.542,148.052 557.695,156.119 C549.305,179.89 579.935,193.599 594.622,173.404 C605.289,158.737 591.981,133.811 576.726,143.198" fill-opacity="0" stroke="#000000" stroke-width="2.5" stroke-linecap="round" stroke-linejoin="round"/>
    <path d="M432.147,270.881 C424.317,271.932 415.875,275.386 413.028,283.452 C404.638,307.223 435.269,320.932 449.956,300.737 C460.623,286.07 447.314,261.144 432.059,270.532" fill-opacity="0" stroke="#000000" stroke-width="2.5" stroke-linecap="round" stroke-linejoin="round"/>
    <path d="M428.146,483.547 C420.317,484.598 411.875,488.052 409.028,496.119 C400.638,519.89 431.269,533.599 445.956,513.404 C456.623,498.737 443.314,473.811 428.059,483.198" fill-opacity="0" stroke="#000000" stroke-width="2.5" stroke-linecap="round" stroke-linejoin="round"/>
    <path d="M301.48,365.547 C293.651,366.598 285.208,370.052 282.361,378.119 C273.971,401.89 304.602,415.599 319.289,395.404 C329.956,380.737 316.647,355.811 301.393,365.198" fill-opacity="0" stroke="#000000" stroke-width="2.5" stroke-linecap="round" stroke-linejoin="round"/>
    <path d="M552.147,369.547 C544.317,370.598 535.875,374.052 533.028,382.119 C524.638,405.89 555.269,419.599 569.956,399.404 C580.623,384.737 567.314,359.811 552.059,369.198" fill-opacity="0" stroke="#000000" stroke-width="2.5" stroke-linecap="round" stroke-linejoin="round"/>
    <path d="M724.813,141.547 C716.984,142.598 708.542,146.052 705.695,154.119 C697.305,177.89 727.935,191.599 742.622,171.404 C753.29,156.737 739.981,131.811 724.726,141.198" fill-opacity="0" stroke="#000000" stroke-width="2.5" stroke-linecap="round" stroke-linejoin="round"/>
    <g>
      <path d="M407.486,305.935 C384.755,324.894 360.951,343.07 336.052,359.05" fill-opacity="0" stroke="#000000" stroke-width="2.5" stroke-linecap="round" stroke-linejoin="round"/>
      <path d="M342.558,363.943 C332.513,361.369 326.178,364.017 333.687,352.559" fill-opacity="0" stroke="#000000" stroke-width="2.5" stroke-linecap="round" stroke-linejoin="round"/>
    </g>
    <g>
      <path d="M453.563,304.308 C479.874,324.809 505.692,346.559 529.563,369.82" fill-opacity="0" stroke="#000000" stroke-width="2.5" stroke-linecap="round" stroke-linejoin="round"/>
      <path d="M532.7,362.215 C533.005,373.118 537.612,379.275 523.551,373.378" fill-opacity="0" stroke="#000000" stroke-width="2.5" stroke-linecap="round" stroke-linejoin="round"/>
    </g>
    <g>
      <path d="M410.145,483.841 C379.87,460.233 350.029,435.33 322.185,408.952" fill-opacity="0" stroke="#000000" stroke-width="2.5" stroke-linecap="round" stroke-linejoin="round"/>
      <path d="M319.389,416.827 C318.174,405.208 312.664,398.343 328.434,405.578" fill-opacity="0" stroke="#000000" stroke-width="2.5" stroke-linecap="round" stroke-linejoin="round"/>
    </g>
    <g>
      <path d="M702.351,147.808 C668.894,128.98 635.672,108.807 604.205,86.878" fill-opacity="0" stroke="#000000" stroke-width="2.5" stroke-linecap="round" stroke-linejoin="round"/>
      <path d="M602.615,95.082 C599.68,83.774 593.208,77.808 609.881,82.61" fill-opacity="0" stroke="#000000" stroke-width="2.5" stroke-linecap="round" stroke-linejoin="round"/>
    </g>
    <g>
      <path d="M573.501,360.824 C613.82,304.578 655.703,248.363 698.9,194.42" fill-opacity="0" stroke="#000000" stroke-width="2.5" stroke-linecap="round" stroke-linejoin="round"/>
      <path d="M689.444,193.994 C705.05,186.676 715.754,175.222 701.387,202.12" fill-opacity="0" stroke="#000000" stroke-width="2.5" stroke-linecap="round" stroke-linejoin="round"/>
    </g>
    <g>
      <path d="M533.311,411.302 C509.613,435.684 484.72,459.447 458.541,481.104" fill-opacity="0" stroke="#000000" stroke-width="2.5" stroke-linecap="round" stroke-linejoin="round"/>
      <path d="M465.799,485.011 C454.823,484.233 448.097,488.248 455.686,474.714" fill-opacity="0" stroke="#000000" stroke-width="2.5" stroke-linecap="round" stroke-linejoin="round"/>
    </g>
    <g>
      <path d="M567.035,362.133 C565.454,307.263 565.141,251.667 567.245,196.885" fill-opacity="0" stroke="#000000" stroke-width="2.5" stroke-linecap="round" stroke-linejoin="round"/>
      <path d="M559.43,201.122 C567.505,189.045 569.176,176.683 573.86,200.58" fill-opacity="0" stroke="#000000" stroke-width="2.5" stroke-linecap="round" stroke-linejoin="round"/>
    </g>
    <g>
      <path d="M724.256,97.617 C725.837,109.889 726.149,122.324 724.046,134.577" fill-opacity="0" stroke="#000000" stroke-width="2.5" stroke-linecap="round" stroke-linejoin="round"/>
      <path d="M731.86,133.629 C723.785,136.331 722.114,139.096 717.43,133.751" fill-opacity="0" stroke="#000000" stroke-width="2.5" stroke-linecap="round" stroke-linejoin="round"/>
    </g>
    <g>
      <path d="M432.312,312.617 C433.893,363.415 434.205,414.885 432.102,465.602" fill-opacity="0" stroke="#000000" stroke-width="2.5" stroke-linecap="round" stroke-linejoin="round"/>
      <path d="M439.916,461.679 C431.841,472.859 430.17,484.305 425.486,462.181" fill-opacity="0" stroke="#000000" stroke-width="2.5" stroke-linecap="round" stroke-linejoin="round"/>
    </g>
    <g>
      <path d="M721.645,8.623 C723.226,20.896 723.538,33.331 721.435,45.584" fill-opacity="0" stroke="#000000" stroke-width="2.5" stroke-linecap="round" stroke-linejoin="round"/>
      <path d="M729.249,44.636 C721.174,47.337 719.503,50.102 714.82,44.757" fill-opacity="0" stroke="#000000" stroke-width="2.5" stroke-linecap="round" stroke-linejoin="round"/>
    </g>
    <g>
      <path d="M551.337,69.557 C522.151,71.138 492.578,71.45 463.439,69.347" fill-opacity="0" stroke="#000000" stroke-width="2.5" stroke-linecap="round" stroke-linejoin="round"/>
      <path d="M465.693,77.161 C459.269,69.086 452.693,67.416 465.404,62.732" fill-opacity="0" stroke="#000000" stroke-width="2.5" stroke-linecap="round" stroke-linejoin="round"/>
    </g>
    <g>
      <path d="M550.003,164.89 C520.817,166.471 491.245,166.784 462.105,164.68" fill-opacity="0" stroke="#000000" stroke-width="2.5" stroke-linecap="round" stroke-linejoin="round"/>
      <path d="M464.359,172.494 C457.935,164.42 451.359,162.749 464.071,158.065" fill-opacity="0" stroke="#000000" stroke-width="2.5" stroke-linecap="round" stroke-linejoin="round"/>
    </g>
    <g>
      <g>
        <path d="M437.24,32.221 L499.394,32.221 L499.394,53.826 L437.24,53.826 L437.24,32.221 z" fill="#999999"/>
        <path d="M437.24,32.221 L499.394,32.221 L499.394,53.826 L437.24,53.826 L437.24,32.221 z" fill-opacity="0" stroke="#999999" stroke-width="1"/>
      </g>
      <g>
        <path d="M477.125,68.118 L477.125,68.118 L477.125,68.45 L477.125,68.45 L477.125,68.118 z" fill="#424242"/>
        <path d="M477.125,68.118 L477.125,68.118 L477.125,68.45 L477.125,68.45 L477.125,68.118 z" fill-opacity="0" stroke="#424242" stroke-width="1"/>
      </g>
      <text transform="matrix(1, 0, 0, 1, 469.242, 42.836)">
        <tspan x="-27.519" y="1.993" font-family="HelveticaNeue" font-size="12" fill="#FFFFFF">Type</tspan>
      </text>
    </g>
    <g>
      <g>
        <path d="M437.24,132.532 L499.394,132.532 L499.394,154.136 L437.24,154.136 L437.24,132.532 z" fill="#999999"/>
        <path d="M437.24,132.532 L499.394,132.532 L499.394,154.136 L437.24,154.136 L437.24,132.532 z" fill-opacity="0" stroke="#999999" stroke-width="1"/>
      </g>
      <g>
        <path d="M477.125,168.428 L477.125,168.428 L477.125,168.76 L477.125,168.76 L477.125,168.428 z" fill="#424242"/>
        <path d="M477.125,168.428 L477.125,168.428 L477.125,168.76 L477.125,168.76 L477.125,168.428 z" fill-opacity="0" stroke="#424242" stroke-width="1"/>
      </g>
      <text transform="matrix(1, 0, 0, 1, 469.242, 143.146)">
        <tspan x="-27.519" y="1.993" font-family="HelveticaNeue" font-size="12" fill="#FFFFFF">Type</tspan>
      </text>
    </g>
    <g>
      <g>
        <path d="M437.24,252.532 L499.394,252.532 L499.394,274.136 L437.24,274.136 L437.24,252.532 z" fill="#999999"/>
        <path d="M437.24,252.532 L499.394,252.532 L499.394,274.136 L437.24,274.136 L437.24,252.532 z" fill-opacity="0" stroke="#999999" stroke-width="1"/>
      </g>
      <g>
        <path d="M477.125,288.428 L477.125,288.428 L477.125,288.76 L477.125,288.76 L477.125,288.428 z" fill="#424242"/>
        <path d="M477.125,288.428 L477.125,288.428 L477.125,288.76 L477.125,288.76 L477.125,288.428 z" fill-opacity="0" stroke="#424242" stroke-width="1"/>
      </g>
      <text transform="matrix(1, 0, 0, 1, 469.242, 263.146)">
        <tspan x="-27.519" y="1.993" font-family="HelveticaNeue" font-size="12" fill="#FFFFFF">Method</tspan>
      </text>
    </g>
    <g>
      <g>
        <path d="M576.688,32.221 L642.27,32.221 L642.27,53.826 L576.688,53.826 L576.688,32.221 z" fill="#999999"/>
        <path d="M576.688,32.221 L642.27,32.221 L642.27,53.826 L576.688,53.826 L576.688,32.221 z" fill-opacity="0" stroke="#999999" stroke-width="1"/>
      </g>
      <g>
        <path d="M618.772,68.118 L618.772,68.118 L618.772,68.45 L618.772,68.45 L618.772,68.118 z" fill="#424242"/>
        <path d="M618.772,68.118 L618.772,68.118 L618.772,68.45 L618.772,68.45 L618.772,68.118 z" fill-opacity="0" stroke="#424242" stroke-width="1"/>
      </g>
      <text transform="matrix(1, 0, 0, 1, 617.077, 48.328)">
        <tspan x="-35.632" y="-3.5" font-family="HelveticaNeue" font-size="12" fill="#FFFFFF">Annotation</tspan>
      </text>
    </g>
    <g>
      <g>
        <path d="M736.188,36.532 L801.77,36.532 L801.77,58.136 L736.188,58.136 L736.188,36.532 z" fill="#999999"/>
        <path d="M736.188,36.532 L801.77,36.532 L801.77,58.136 L736.188,58.136 L736.188,36.532 z" fill-opacity="0" stroke="#999999" stroke-width="1"/>
      </g>
      <g>
        <path d="M778.272,72.428 L778.272,72.428 L778.272,72.76 L778.272,72.76 L778.272,72.428 z" fill="#424242"/>
        <path d="M778.272,72.428 L778.272,72.428 L778.272,72.76 L778.272,72.76 L778.272,72.428 z" fill-opacity="0" stroke="#424242" stroke-width="1"/>
      </g>
      <text transform="matrix(1, 0, 0, 1, 776.577, 52.639)">
        <tspan x="-35.632" y="-3.5" font-family="HelveticaNeue" font-size="12" fill="#FFFFFF">Package</tspan>
      </text>
    </g>
    <g>
      <g>
        <path d="M576.688,132.532 L642.27,132.532 L642.27,154.136 L576.688,154.136 L576.688,132.532 z" fill="#999999"/>
        <path d="M576.688,132.532 L642.27,132.532 L642.27,154.136 L576.688,154.136 L576.688,132.532 z" fill-opacity="0" stroke="#999999" stroke-width="1"/>
      </g>
      <g>
        <path d="M618.772,168.428 L618.772,168.428 L618.772,168.76 L618.772,168.76 L618.772,168.428 z" fill="#424242"/>
        <path d="M618.772,168.428 L618.772,168.428 L618.772,168.76 L618.772,168.76 L618.772,168.428 z" fill-opacity="0" stroke="#424242" stroke-width="1"/>
      </g>
      <text transform="matrix(1, 0, 0, 1, 617.077, 148.639)">
        <tspan x="-35.632" y="-3.5" font-family="HelveticaNeue" font-size="12" fill="#FFFFFF">Annotation</tspan>
      </text>
    </g>
    <g>
      <g>
        <path d="M736.188,132.532 L801.77,132.532 L801.77,154.136 L736.188,154.136 L736.188,132.532 z" fill="#999999"/>
        <path d="M736.188,132.532 L801.77,132.532 L801.77,154.136 L736.188,154.136 L736.188,132.532 z" fill-opacity="0" stroke="#999999" stroke-width="1"/>
      </g>
      <g>
        <path d="M778.272,168.428 L778.272,168.428 L778.272,168.76 L778.272,168.76 L778.272,168.428 z" fill="#424242"/>
        <path d="M778.272,168.428 L778.272,168.428 L778.272,168.76 L778.272,168.76 L778.272,168.428 z" fill-opacity="0" stroke="#424242" stroke-width="1"/>
      </g>
      <text transform="matrix(1, 0, 0, 1, 776.577, 148.639)">
        <tspan x="-35.632" y="-3.5" font-family="HelveticaNeue" font-size="12" fill="#FFFFFF">Type</tspan>
      </text>
    </g>
    <g>
      <g>
        <path d="M736.188,104.91 L801.77,104.91 L801.77,126.515 L736.188,126.515 L736.188,104.91 z" fill="#999999"/>
        <path d="M736.188,104.91 L801.77,104.91 L801.77,126.515 L736.188,126.515 L736.188,104.91 z" fill-opacity="0" stroke="#999999" stroke-width="1"/>
      </g>
      <g>
        <path d="M778.272,140.807 L778.272,140.807 L778.272,141.139 L778.272,141.139 L778.272,140.807 z" fill="#424242"/>
        <path d="M778.272,140.807 L778.272,140.807 L778.272,141.139 L778.272,141.139 L778.272,140.807 z" fill-opacity="0" stroke="#424242" stroke-width="1"/>
      </g>
      <text transform="matrix(1, 0, 0, 1, 776.577, 121.018)">
        <tspan x="-35.632" y="-3.5" font-family="HelveticaNeue" font-size="12" fill="#FFFFFF">Class</tspan>
      </text>
    </g>
    <g>
      <g>
        <path d="M559.43,419.438 L625.013,419.438 L625.013,441.042 L559.43,441.042 L559.43,419.438 z" fill="#999999"/>
        <path d="M559.43,419.438 L625.013,419.438 L625.013,441.042 L559.43,441.042 L559.43,419.438 z" fill-opacity="0" stroke="#999999" stroke-width="1"/>
      </g>
      <g>
        <path d="M601.515,455.334 L601.515,455.334 L601.515,455.667 L601.515,455.667 L601.515,455.334 z" fill="#424242"/>
        <path d="M601.515,455.334 L601.515,455.334 L601.515,455.667 L601.515,455.667 L601.515,455.334 z" fill-opacity="0" stroke="#424242" stroke-width="1"/>
      </g>
      <text transform="matrix(1, 0, 0, 1, 599.82, 435.545)">
        <tspan x="-35.632" y="-3.5" font-family="HelveticaNeue" font-size="12" fill="#FFFFFF">Type</tspan>
      </text>
    </g>
    <g>
      <g>
        <path d="M228.93,358.438 L294.513,358.438 L294.513,380.042 L228.93,380.042 L228.93,358.438 z" fill="#999999"/>
        <path d="M228.93,358.438 L294.513,358.438 L294.513,380.042 L228.93,380.042 L228.93,358.438 z" fill-opacity="0" stroke="#999999" stroke-width="1"/>
      </g>
      <g>
        <path d="M271.015,394.334 L271.015,394.334 L271.015,394.667 L271.015,394.667 L271.015,394.334 z" fill="#424242"/>
        <path d="M271.015,394.334 L271.015,394.334 L271.015,394.667 L271.015,394.667 L271.015,394.334 z" fill-opacity="0" stroke="#424242" stroke-width="1"/>
      </g>
      <text transform="matrix(1, 0, 0, 1, 269.32, 374.545)">
        <tspan x="-35.632" y="-3.5" font-family="HelveticaNeue" font-size="12" fill="#FFFFFF">Type</tspan>
      </text>
    </g>
    <g>
      <g>
        <path d="M437.24,505.438 L502.822,505.438 L502.822,527.042 L437.24,527.042 L437.24,505.438 z" fill="#999999"/>
        <path d="M437.24,505.438 L502.822,505.438 L502.822,527.042 L437.24,527.042 L437.24,505.438 z" fill-opacity="0" stroke="#999999" stroke-width="1"/>
      </g>
      <g>
        <path d="M479.325,541.334 L479.325,541.334 L479.325,541.667 L479.325,541.667 L479.325,541.334 z" fill="#424242"/>
        <path d="M479.325,541.334 L479.325,541.334 L479.325,541.667 L479.325,541.667 L479.325,541.334 z" fill-opacity="0" stroke="#424242" stroke-width="1"/>
      </g>
      <text transform="matrix(1, 0, 0, 1, 477.629, 521.545)">
        <tspan x="-35.632" y="-3.5" font-family="HelveticaNeue" font-size="12" fill="#FFFFFF">Field</tspan>
      </text>
    </g>
    <g>
      <g>
        <path d="M559.43,391.817 L625.013,391.817 L625.013,413.421 L559.43,413.421 L559.43,391.817 z" fill="#999999"/>
        <path d="M559.43,391.817 L625.013,391.817 L625.013,413.421 L559.43,413.421 L559.43,391.817 z" fill-opacity="0" stroke="#999999" stroke-width="1"/>
      </g>
      <g>
        <path d="M601.515,427.713 L601.515,427.713 L601.515,428.045 L601.515,428.045 L601.515,427.713 z" fill="#424242"/>
        <path d="M601.515,427.713 L601.515,427.713 L601.515,428.045 L601.515,428.045 L601.515,427.713 z" fill-opacity="0" stroke="#424242" stroke-width="1"/>
      </g>
      <text transform="matrix(1, 0, 0, 1, 599.82, 407.924)">
        <tspan x="-35.632" y="-3.5" font-family="HelveticaNeue" font-size="12" fill="#FFFFFF">Class</tspan>
      </text>
    </g>
    <text transform="matrix(1, 0, 0, 1, 404.689, 442.726)">
      <tspan x="-34.5" y="3" font-family="HelveticaNeue" font-size="10" fill="#8D1616">OF_TYPE</tspan>
    </text>
    <text transform="matrix(1, 0, 0, 1, 516.337, 79.26)">
      <tspan x="-34.5" y="3" font-family="HelveticaNeue" font-size="10" fill="#8D1616">OF_TYPE</tspan>
    </text>
    <text transform="matrix(1, 0, 0, 1, 516.337, 179.45)">
      <tspan x="-34.5" y="3" font-family="HelveticaNeue" font-size="10" fill="#8D1616">OF_TYPE</tspan>
    </text>
    <text transform="matrix(1, 0, 0, 1, 335.689, 324.226)">
      <tspan x="-11.97" y="3" font-family="HelveticaNeue" font-size="10" fill="#8D1616">RETURNS</tspan>
    </text>
    <text transform="matrix(1, 0, 0, 1, 394.689, 382.163)">
      <tspan x="1.54" y="3" font-family="HelveticaNeue" font-size="10" fill="#8D1616">READS</tspan>
    </text>
    <text transform="matrix(1, 0, 0, 1, 533.394, 456.726)">
      <tspan x="-34.5" y="3" font-family="HelveticaNeue" font-size="10" fill="#8D1616">DECLARES</tspan>
    </text>
    <text transform="matrix(1, 0, 0, 1, 657.894, 305.117)">
      <tspan x="-34.5" y="3" font-family="HelveticaNeue" font-size="10" fill="#8D1616">EXTENDS</tspan>
    </text>
    <text transform="matrix(1, 0, 0, 1, 616.251, 228.167)">
      <tspan x="-43.25" y="-3" font-family="HelveticaNeue" font-size="10" fill="#8D1616">ANNOTATED_BY</tspan>
    </text>
    <text transform="matrix(1, 0, 0, 1, 580.144, 113.873)">
      <tspan x="-32.87" y="-3" font-family="HelveticaNeue" font-size="10" fill="#8D1616">ANNOTATED_BY</tspan>
    </text>
    <text transform="matrix(1, 0, 0, 1, 676.938, 119.032)">
      <tspan x="-6.38" y="-3" font-family="HelveticaNeue" font-size="10" fill="#8D1616">CONTAINS</tspan>
    </text>
    <text transform="matrix(1, 0, 0, 1, 524.43, 324.226)">
      <tspan x="-34.5" y="3" font-family="HelveticaNeue" font-size="10" fill="#8D1616">DECLARES</tspan>
    </text>
    <text transform="matrix(1, 0, 0, 1, 331.439, 495.438)">
      <tspan x="4.61" y="3" font-family="HelveticaNeue" font-size="10" fill="#39383D">name: address</tspan>
    </text>
    <text transform="matrix(1, 0, 0, 1, 205.939, 393.208)">
      <tspan x="-18.15" y="3" font-family="HelveticaNeue" font-size="10" fill="#39383D">fqn: java.lang.String</tspan>
    </text>
    <text transform="matrix(1, 0, 0, 1, 340.347, 267.208)">
      <tspan x="-15.94" y="3" font-family="HelveticaNeue" font-size="10" fill="#39383D">name: getAddress()</tspan>
    </text>
    <text transform="matrix(1, 0, 0, 1, 649.438, 379.208)">
      <tspan x="-70.75" y="3" font-family="HelveticaNeue" font-size="10" fill="#39383D">name: Owner</tspan>
    </text>
    <text transform="matrix(1, 0, 0, 1, 820.388, 173.682)">
      <tspan x="-70.75" y="3" font-family="HelveticaNeue" font-size="10" fill="#39383D">name: Person</tspan>
    </text>
    <text transform="matrix(1, 0, 0, 1, 447.439, 111.032)">
      <tspan x="-96.25" y="-9" font-family="HelveticaNeue" font-size="10" fill="#39383D">fqn: javax.persistence.MappedSuperclass</tspan>
    </text>
    <text transform="matrix(1, 0, 0, 1, 429.534, 208.95)">
      <tspan x="-73.852" y="-9" font-family="HelveticaNeue" font-size="10" fill="#39383D">fqn: javax.persistence.Entity</tspan>
    </text>
  </g>
</svg>
