<?xml version="1.0" encoding="UTF-8"?>
<!DOCTYPE svg PUBLIC "-//W3C//DTD SVG 1.1//EN" "http://www.w3.org/Graphics/SVG/1.1/DTD/svg11.dtd">
<svg version="1.1" xmlns="http://www.w3.org/2000/svg" xmlns:xlink="http://www.w3.org/1999/xlink" x="0" y="0" width="568.173" height="463.289" viewBox="0, 0, 568.173, 463.289">
  <g id="Ebene_1" transform="translate(-106.629, -97.035)">
    <g>
      <path d="M276.861,285.276 C281.179,306.748 265.764,368.631 275.298,386.354 C277.989,391.357 293.271,385.069 297.694,385.774 C322.822,389.777 387.894,389.505 413.321,386.354" fill-opacity="0" stroke="#8D1616" stroke-width="2" stroke-linecap="round" stroke-linejoin="round"/>
      <path d="M287.278,282.162 C293.2,282.119 299.575,281.549 305.507,281.929 C319.703,282.838 333.662,285.791 348.216,285.197 C370.716,284.28 394.84,278.078 417.487,281.462" fill-opacity="0" stroke="#8D1616" stroke-width="2" stroke-linecap="round" stroke-linejoin="round"/>
      <path d="M415.404,299.798 C412.135,327.21 412.893,355.214 410.196,382.288" fill-opacity="0" stroke="#8D1616" stroke-width="2" stroke-linecap="round" stroke-linejoin="round"/>
      <path d="M415.925,380.545 C421.645,371.076 426.897,361.336 434.154,353.242" fill-opacity="0" stroke="#8D1616" stroke-width="2" stroke-linecap="round" stroke-linejoin="round"/>
      <path d="M424.258,280.628 C426.743,272.601 434.485,269.89 437.279,262.62" fill-opacity="0" stroke="#8D1616" stroke-width="2" stroke-linecap="round" stroke-linejoin="round"/>
      <path d="M439.883,278.305 C438.592,302.765 434.246,326.283 431.55,350.338" fill-opacity="0" stroke="#8D1616" stroke-width="2" stroke-linecap="round" stroke-linejoin="round"/>
      <path d="M285.715,276.562 C291.66,270.473 298.119,264.185 302.382,257.392" fill-opacity="0" stroke="#8D1616" stroke-width="2" stroke-linecap="round" stroke-linejoin="round"/>
      <path d="M312.278,253.325 C351.324,248.229 391.577,258.553 430.508,258.553" fill-opacity="0" stroke="#8D1616" stroke-width="2" stroke-linecap="round" stroke-linejoin="round"/>
    </g>
    <g>
      <path d="M303.731,126.179 C307.198,143.327 294.822,192.746 302.477,206.9 C304.637,210.895 316.906,205.873 320.458,206.436 C340.632,209.633 392.875,209.416 413.289,206.9" fill-opacity="0" stroke="#8D1616" stroke-width="2" stroke-linecap="round" stroke-linejoin="round"/>
      <path d="M312.094,123.692 C316.849,123.658 321.968,123.203 326.73,123.506 C338.128,124.232 349.335,126.59 361.019,126.116 C379.084,125.384 398.452,120.431 416.634,123.133" fill-opacity="0" stroke="#8D1616" stroke-width="2" stroke-linecap="round" stroke-linejoin="round"/>
      <path d="M414.962,137.777 C412.337,159.667 412.946,182.031 410.78,203.652" fill-opacity="0" stroke="#8D1616" stroke-width="2" stroke-linecap="round" stroke-linejoin="round"/>
      <path d="M415.38,202.261 C419.972,194.698 424.189,186.92 430.016,180.457" fill-opacity="0" stroke="#8D1616" stroke-width="2" stroke-linecap="round" stroke-linejoin="round"/>
      <path d="M422.071,122.467 C424.066,116.057 430.282,113.892 432.525,108.086" fill-opacity="0" stroke="#8D1616" stroke-width="2" stroke-linecap="round" stroke-linejoin="round"/>
      <path d="M434.615,120.612 C433.579,140.146 430.089,158.927 427.925,178.137" fill-opacity="0" stroke="#8D1616" stroke-width="2" stroke-linecap="round" stroke-linejoin="round"/>
      <path d="M310.84,119.22 C315.613,114.358 320.798,109.336 324.221,103.911" fill-opacity="0" stroke="#8D1616" stroke-width="2" stroke-linecap="round" stroke-linejoin="round"/>
      <path d="M332.166,100.664 C363.515,96.594 395.832,104.839 427.088,104.839" fill-opacity="0" stroke="#8D1616" stroke-width="2" stroke-linecap="round" stroke-linejoin="round"/>
    </g>
    <g>
      <path d="M308.999,476.191 C312.466,493.339 300.09,542.758 307.745,556.912 C309.905,560.907 322.174,555.885 325.726,556.448 C345.9,559.646 398.143,559.429 418.557,556.912" fill-opacity="0" stroke="#8D1616" stroke-width="2" stroke-linecap="round" stroke-linejoin="round"/>
      <path d="M317.362,473.705 C322.117,473.671 327.236,473.215 331.998,473.519 C343.396,474.245 354.603,476.603 366.287,476.129 C384.352,475.397 403.72,470.443 421.902,473.146" fill-opacity="0" stroke="#8D1616" stroke-width="2" stroke-linecap="round" stroke-linejoin="round"/>
      <path d="M420.23,487.789 C417.605,509.68 418.214,532.044 416.048,553.665" fill-opacity="0" stroke="#8D1616" stroke-width="2" stroke-linecap="round" stroke-linejoin="round"/>
      <path d="M420.648,552.273 C425.24,544.711 429.457,536.933 435.284,530.469" fill-opacity="0" stroke="#8D1616" stroke-width="2" stroke-linecap="round" stroke-linejoin="round"/>
      <path d="M427.339,472.48 C429.334,466.07 435.55,463.905 437.793,458.099" fill-opacity="0" stroke="#8D1616" stroke-width="2" stroke-linecap="round" stroke-linejoin="round"/>
      <path d="M439.883,470.624 C438.847,490.158 435.357,508.94 433.193,528.15" fill-opacity="0" stroke="#8D1616" stroke-width="2" stroke-linecap="round" stroke-linejoin="round"/>
      <path d="M316.108,469.233 C320.881,464.37 326.066,459.348 329.489,453.924" fill-opacity="0" stroke="#8D1616" stroke-width="2" stroke-linecap="round" stroke-linejoin="round"/>
      <path d="M337.434,450.676 C368.783,446.606 401.1,454.851 432.356,454.851" fill-opacity="0" stroke="#8D1616" stroke-width="2" stroke-linecap="round" stroke-linejoin="round"/>
    </g>
    <g>
      <path d="M112.93,476.191 C116.397,493.339 104.021,542.758 111.676,556.912 C113.837,560.907 126.105,555.885 129.657,556.448 C149.831,559.646 202.074,559.429 222.488,556.912" fill-opacity="0" stroke="#8D1616" stroke-width="2" stroke-linecap="round" stroke-linejoin="round"/>
      <path d="M121.294,473.705 C126.049,473.671 131.167,473.215 135.929,473.519 C147.327,474.245 158.534,476.603 170.218,476.129 C188.283,475.397 207.651,470.443 225.834,473.146" fill-opacity="0" stroke="#8D1616" stroke-width="2" stroke-linecap="round" stroke-linejoin="round"/>
      <path d="M224.161,487.789 C221.536,509.68 222.145,532.044 219.979,553.665" fill-opacity="0" stroke="#8D1616" stroke-width="2" stroke-linecap="round" stroke-linejoin="round"/>
      <path d="M224.579,552.273 C229.172,544.711 233.388,536.933 239.215,530.469" fill-opacity="0" stroke="#8D1616" stroke-width="2" stroke-linecap="round" stroke-linejoin="round"/>
      <path d="M231.27,472.48 C233.265,466.07 239.481,463.905 241.724,458.099" fill-opacity="0" stroke="#8D1616" stroke-width="2" stroke-linecap="round" stroke-linejoin="round"/>
      <path d="M243.815,470.624 C242.778,490.158 239.288,508.94 237.124,528.15" fill-opacity="0" stroke="#8D1616" stroke-width="2" stroke-linecap="round" stroke-linejoin="round"/>
      <path d="M120.039,469.233 C124.812,464.37 129.997,459.348 133.42,453.924" fill-opacity="0" stroke="#8D1616" stroke-width="2" stroke-linecap="round" stroke-linejoin="round"/>
      <path d="M141.365,450.676 C172.714,446.606 205.031,454.851 236.288,454.851" fill-opacity="0" stroke="#8D1616" stroke-width="2" stroke-linecap="round" stroke-linejoin="round"/>
    </g>
    <g>
      <path d="M542.418,292.336 C545.885,309.484 533.509,358.903 541.164,373.057 C543.324,377.052 555.593,372.03 559.145,372.593 C579.319,375.79 631.562,375.573 651.976,373.057" fill-opacity="0" stroke="#8D1616" stroke-width="2" stroke-linecap="round" stroke-linejoin="round"/>
      <path d="M550.781,289.849 C555.536,289.815 560.655,289.36 565.417,289.663 C576.815,290.389 588.022,292.747 599.706,292.273 C617.771,291.541 637.139,286.588 655.322,289.29" fill-opacity="0" stroke="#8D1616" stroke-width="2" stroke-linecap="round" stroke-linejoin="round"/>
      <path d="M653.649,303.934 C651.024,325.824 651.633,348.188 649.467,369.809" fill-opacity="0" stroke="#8D1616" stroke-width="2" stroke-linecap="round" stroke-linejoin="round"/>
      <path d="M654.067,368.418 C658.659,360.855 662.876,353.077 668.703,346.614" fill-opacity="0" stroke="#8D1616" stroke-width="2" stroke-linecap="round" stroke-linejoin="round"/>
      <path d="M660.758,288.624 C662.753,282.214 668.969,280.049 671.212,274.243" fill-opacity="0" stroke="#8D1616" stroke-width="2" stroke-linecap="round" stroke-linejoin="round"/>
      <path d="M673.302,286.769 C672.266,306.303 668.776,325.084 666.612,344.294" fill-opacity="0" stroke="#8D1616" stroke-width="2" stroke-linecap="round" stroke-linejoin="round"/>
      <path d="M549.527,285.377 C554.3,280.515 559.485,275.493 562.908,270.068" fill-opacity="0" stroke="#8D1616" stroke-width="2" stroke-linecap="round" stroke-linejoin="round"/>
      <path d="M570.853,266.821 C602.202,262.751 634.519,270.996 665.776,270.996" fill-opacity="0" stroke="#8D1616" stroke-width="2" stroke-linecap="round" stroke-linejoin="round"/>
    </g>
    <path d="M181.5,449.547" fill-opacity="0" stroke="#8D1616" stroke-width="2"/>
    <path d="M158.5,445.5" fill-opacity="0" stroke="#8D1616" stroke-width="2"/>
    <path d="M351.5,208.811 L351.5,265.692" fill-opacity="0" stroke="#8D1616" stroke-width="2"/>
    <path d="M174.5,330.5 L174.5,449.547" fill-opacity="0" stroke="#8D1616" stroke-width="2"/>
    <path d="M351.5,387.976 L351.5,461.26" fill-opacity="0" stroke="#8D1616" stroke-width="2"/>
    <path d="M174.5,330.5 L274.495,330.5" fill-opacity="0" stroke="#8D1616" stroke-width="2"/>
    <path d="M424.337,330.5 L538.617,330.5" fill-opacity="0" stroke="#8D1616" stroke-width="2"/>
    <text transform="matrix(1, 0, 0, 1, 309.441, 307.646)">
      <tspan x="-16.896" y="8" font-family="HelveticaNeue-Bold" font-size="24" fill="#8D1616">PC</tspan>
    </text>
    <text transform="matrix(1, 0, 0, 1, 169.722, 507.289)">
      <tspan x="-44.551" y="-8.792" font-family="HelveticaNeue-Bold" font-size="18" fill="#8D1616">Keyboard</tspan>
    </text>
    <text transform="matrix(1, 0, 0, 1, 366.773, 507.289)">
      <tspan x="-44.551" y="-8.792" font-family="HelveticaNeue-Bold" font-size="18" fill="#8D1616">Mouse</tspan>
    </text>
    <text transform="matrix(1, 0, 0, 1, 595.153, 326.087)">
      <tspan x="-44.551" y="-8.792" font-family="HelveticaNeue-Bold" font-size="18" fill="#8D1616">Printer</tspan>
    </text>
    <text transform="matrix(1, 0, 0, 1, 358.641, 161.097)">
      <tspan x="-44.551" y="-8.792" font-family="HelveticaNeue-Bold" font-size="18" fill="#8D1616">Monitor</tspan>
    </text>
  </g>
</svg>
