<?xml version="1.0" encoding="UTF-8"?>
<!DOCTYPE svg PUBLIC "-//W3C//DTD SVG 1.1//EN" "http://www.w3.org/Graphics/SVG/1.1/DTD/svg11.dtd">
<svg version="1.1" xmlns="http://www.w3.org/2000/svg" xmlns:xlink="http://www.w3.org/1999/xlink" x="0" y="0" width="948.614" height="389.51" viewBox="0, 0, 948.614, 389.51">
  <g id="Layer_1" transform="translate(-45.809, -113.407)">
    <path d="M56.5,345 C52.726,369.981 53.673,375.365 80.5,370" fill-opacity="0" stroke="#000000" stroke-width="2" stroke-linecap="round" stroke-linejoin="round"/>
    <path d="M68,347 C88.104,349.008 92.5,336.905 92.5,361 C92.5,363.953 96.097,366.758 95,369.5 C93.943,372.142 86.674,369.978 85,369.5" fill-opacity="0" stroke="#000000" stroke-width="2" stroke-linecap="round" stroke-linejoin="round"/>
    <path d="M66.5,346.5 C63.49,346.4 60.481,346.729 57.5,347" fill-opacity="0" stroke="#000000" stroke-width="2" stroke-linecap="round" stroke-linejoin="round"/>
    <path d="M115.5,361.5 C117.568,365.307 111.222,374.296 114,378 C114.138,378.184 143.623,377.418 145,376.5 C148.517,374.155 148.314,357.41 147.5,357.5 C138.284,358.524 129.302,359 120,359" fill-opacity="0" stroke="#000000" stroke-width="2" stroke-linecap="round" stroke-linejoin="round"/>
    <path d="M72,394 C71.333,396.833 70.55,399.642 70,402.5 C69.761,403.743 67.624,412.593 69.5,414 C70.558,414.793 76.162,412.667 77.5,412.5 C84.087,411.677 102.452,413.685 107,408 C108.599,406.001 108.747,400.134 109.5,397.5 C114.121,381.327 87.887,389.292 78,393" fill-opacity="0" stroke="#000000" stroke-width="2" stroke-linecap="round" stroke-linejoin="round"/>
    <path d="M126,411.5 C125.255,419.321 122.469,423 131,423 C146.696,423 157.594,422.153 159.5,405 C159.64,403.741 160.798,399.539 159.5,398.5 C157.489,396.891 128.695,397.088 127,398.5 C123.878,401.101 125.067,405.036 125.5,408.5" fill-opacity="0" stroke="#000000" stroke-width="2" stroke-linecap="round" stroke-linejoin="round"/>
    <path d="M48.5,438 C47.135,447.855 53.273,445.5 60.5,445.5 C64.273,445.5 68.809,444.107 72.5,443 C81.421,440.324 84,441.726 84,432.5 C84,430.75 85.133,423.511 84,422 C83.798,421.731 51.138,423.771 51,424 C48.99,427.35 51.461,435.307 53,438" fill-opacity="0" stroke="#000000" stroke-width="2" stroke-linecap="round" stroke-linejoin="round"/>
    <path d="M105.5,451 C104.653,457.495 101.314,464.921 111,462.5 C115.046,461.488 142.104,459.293 142.5,458.5 C143.047,457.405 140.18,452.94 140,451.5 C139.626,448.508 140.824,439.432 139,437 C137.914,435.552 105.367,435.78 102.5,437.5 C101.387,438.168 103,446.207 103,448" fill-opacity="0" stroke="#000000" stroke-width="2" stroke-linecap="round" stroke-linejoin="round"/>
    <g>
      <path d="M61.773,284.682 C72.605,267.229 71.371,268.783 71.371,285.605" fill-opacity="0" stroke="#000000" stroke-width="2" stroke-linecap="round" stroke-linejoin="round"/>
      <path d="M68.972,279.514 C70.552,279.988 72.156,279.883 73.771,279.883" fill-opacity="0" stroke="#000000" stroke-width="2" stroke-linecap="round" stroke-linejoin="round"/>
      <path d="M80.416,280.622 C80.216,288.278 80.44,280.689 87.43,280.252" fill-opacity="0" stroke="#000000" stroke-width="2" stroke-linecap="round" stroke-linejoin="round"/>
      <path d="M91.121,273.238 C95.623,273.477 99.998,273.279 104.411,272.5" fill-opacity="0" stroke="#000000" stroke-width="2" stroke-linecap="round" stroke-linejoin="round"/>
      <path d="M96.844,274.53 C96.835,278.106 97.432,281.546 97.213,285.052" fill-opacity="0" stroke="#000000" stroke-width="2" stroke-linecap="round" stroke-linejoin="round"/>
      <path d="M105.888,284.129 C105.753,284.556 105.642,284.99 105.519,285.421" fill-opacity="0" stroke="#000000" stroke-width="2" stroke-linecap="round" stroke-linejoin="round"/>
      <path d="M106.811,279.33 L106.811,279.33" fill-opacity="0" stroke="#000000" stroke-width="2" stroke-linecap="round" stroke-linejoin="round"/>
      <path d="M124.162,273.423 C113.821,267.181 116.342,286.813 116.04,288.928" fill-opacity="0" stroke="#000000" stroke-width="2" stroke-linecap="round" stroke-linejoin="round"/>
      <path d="M116.963,279.33 C118.289,279.918 119.736,279.33 121.024,279.33" fill-opacity="0" stroke="#000000" stroke-width="2" stroke-linecap="round" stroke-linejoin="round"/>
      <path d="M127.115,279.699 C113.457,291.511 134.853,280.555 130.622,279.145 C127.449,278.087 130.296,284.299 130.991,284.867" fill-opacity="0" stroke="#000000" stroke-width="2" stroke-linecap="round" stroke-linejoin="round"/>
      <path d="M140.589,279.514 C135.587,282.311 138.019,285.257 142.62,284.682" fill-opacity="0" stroke="#000000" stroke-width="2" stroke-linecap="round" stroke-linejoin="round"/>
      <path d="M145.573,272.685 C152.161,273.624 158.408,271.345 164.769,270.285" fill-opacity="0" stroke="#000000" stroke-width="2" stroke-linecap="round" stroke-linejoin="round"/>
      <path d="M154.617,269.731 C154.25,275.135 153.65,280.592 154.248,285.974" fill-opacity="0" stroke="#000000" stroke-width="2" stroke-linecap="round" stroke-linejoin="round"/>
      <path d="M167.538,277.115 C158.65,283.553 178.877,285.658 162.001,288.189" fill-opacity="0" stroke="#000000" stroke-width="2" stroke-linecap="round" stroke-linejoin="round"/>
    </g>
    <path d="M180.232,357.439 L180.232,357.439" fill-opacity="0" stroke="#000000" stroke-width="2" stroke-linecap="round" stroke-linejoin="round"/>
    <path d="M171.08,363.976 C173.334,368.411 168.049,376.694 169.119,380.973 C169.851,383.903 212.519,378.94 216.841,377.705" fill-opacity="0" stroke="#000000" stroke-width="2" stroke-linecap="round" stroke-linejoin="round"/>
    <path d="M178.271,356.785 C216.174,359.585 220.764,342.712 220.764,371.821" fill-opacity="0" stroke="#000000" stroke-width="2" stroke-linecap="round" stroke-linejoin="round"/>
    <path d="M169.773,419.544 C172.03,421.882 161.275,438.013 164.543,440.463 C175.157,448.424 209.085,434.579 221.418,434.579" fill-opacity="0" stroke="#000000" stroke-width="2" stroke-linecap="round" stroke-linejoin="round"/>
    <path d="M182.847,416.275 C204.34,418.409 231.294,398.342 222.725,432.618" fill-opacity="0" stroke="#000000" stroke-width="2" stroke-linecap="round" stroke-linejoin="round"/>
    <path d="M339.196,305.016 C335.309,303.823 332.823,305.073 329.118,306.875 C319.192,311.704 322.516,326.306 330.334,320.824 C332.835,319.071 344.321,303.822 335.547,305.388" fill-opacity="0" stroke="#000000" stroke-width="2" stroke-linecap="round" stroke-linejoin="round"/>
    <path d="M380.554,332.541 C379.792,329.105 375.76,330.077 373.082,331.797 C368.607,334.671 360.595,353.331 371.344,351.139 C378.072,349.768 388.003,336.776 378.121,333.471" fill-opacity="0" stroke="#000000" stroke-width="2" stroke-linecap="round" stroke-linejoin="round"/>
    <path d="M328.249,391.312 C324.337,392.062 321.23,395.126 319.039,398.565 C312.687,408.536 321.235,419.101 330.682,411.398 C336.179,406.915 339.836,386.634 328.596,391.312" fill-opacity="0" stroke="#000000" stroke-width="2" stroke-linecap="round" stroke-linejoin="round"/>
    <path d="M375.341,421.813 C373.144,414.743 366.826,419.324 363.524,422.743 C335.912,451.343 392.686,447.328 371.344,421.441" fill-opacity="0" stroke="#000000" stroke-width="2" stroke-linecap="round" stroke-linejoin="round"/>
    <path d="M340.632,361.291 C322.48,405.007 368.726,363.466 354.42,356.904 C348.365,354.127 342.448,361.741 338.769,365.678" fill-opacity="0" stroke="#000000" stroke-width="2" stroke-linecap="round" stroke-linejoin="round"/>
    <path d="M387.585,376.446 C380.853,379.534 382.775,377.449 378.642,384.822 C356.721,423.924 418.456,385.497 385.349,380.435" fill-opacity="0" stroke="#000000" stroke-width="2" stroke-linecap="round" stroke-linejoin="round"/>
    <path d="M333.552,450.629 C327.483,455.501 325.684,455.772 322.372,464.189 C321.156,467.282 320.844,473.633 323.118,476.553 C332.708,488.871 355.689,444.201 332.061,451.427" fill-opacity="0" stroke="#000000" stroke-width="2" stroke-linecap="round" stroke-linejoin="round"/>
    <path d="M399.51,451.826 C392.709,453.281 392.864,451.838 389.076,460.201 C387.616,463.423 387.192,469.288 389.076,472.565 C396.009,484.624 419.972,452.623 395.038,452.623" fill-opacity="0" stroke="#000000" stroke-width="2" stroke-linecap="round" stroke-linejoin="round"/>
    <path d="M352.883,318.9 C344.098,317.137 346.567,316.067 337.232,324.883 C335.57,326.453 331.888,334.397 331.27,336.05 C318.652,369.813 386.568,318.9 344.685,318.9" fill-opacity="0" stroke="#000000" stroke-width="2" stroke-linecap="round" stroke-linejoin="round"/>
    <path d="M427.831,341.349 C421.881,337.565 417.768,341.863 414.788,347.332 C412.075,352.31 411.387,359.764 414.043,364.88 C422.289,380.767 449.438,343.57 424.477,339.754" fill-opacity="0" stroke="#000000" stroke-width="2" stroke-linecap="round" stroke-linejoin="round"/>
    <path d="M408.08,299.472 C403.129,299.384 399.297,300.78 398.019,306.252 C388.988,344.917 433.363,320.549 421.123,307.449 C417.958,304.061 414.645,302.315 410.316,303.859" fill-opacity="0" stroke="#000000" stroke-width="2" stroke-linecap="round" stroke-linejoin="round"/>
    <path d="M541.558,307.847 C546.438,302.239 543.164,299.68 537.458,301.067 C526.692,303.686 518.409,329.496 533.732,325.396 C555.001,319.705 555.126,288.879 534.477,305.454" fill-opacity="0" stroke="#000000" stroke-width="2" stroke-linecap="round" stroke-linejoin="round"/>
    <path d="M529.633,348.129 C527.397,350.522 524.544,352.402 522.925,355.308 C511.086,376.563 526.457,379.365 536.713,366.077 C541.801,359.485 543.298,342.146 531.124,347.731" fill-opacity="0" stroke="#000000" stroke-width="2" stroke-linecap="round" stroke-linejoin="round"/>
    <path d="M525.906,390.007 C523.919,391.735 521.598,393.099 519.944,395.192 C485.814,438.361 560.274,408.407 526.652,386.816" fill-opacity="0" stroke="#000000" stroke-width="2" stroke-linecap="round" stroke-linejoin="round"/>
    <path d="M520.69,440.658 C518.454,443.982 515.59,446.913 513.982,450.629 C505.671,469.842 521.373,472.674 530.378,460.201 C537.179,450.782 529.242,431.972 517.336,437.069" fill-opacity="0" stroke="#000000" stroke-width="2" stroke-linecap="round" stroke-linejoin="round"/>
    <path d="M606.398,323.003 C598.889,321.855 600.115,320.709 592.61,328.985 C590.875,330.898 587.328,338.835 586.647,341.748 C579.721,371.401 633.978,333.075 603.789,324.997" fill-opacity="0" stroke="#000000" stroke-width="2" stroke-linecap="round" stroke-linejoin="round"/>
    <path d="M597.454,373.655 C590.121,374.963 591.913,373.721 584.784,382.828 C581.633,386.853 578.541,394.163 578.822,399.579 C579.527,413.167 618.201,379.212 592.237,373.655" fill-opacity="0" stroke="#000000" stroke-width="2" stroke-linecap="round" stroke-linejoin="round"/>
    <path d="M559.444,343.343 C557.333,346.933 554.725,350.239 553.109,354.112 C542.826,378.766 565.304,368.31 569.506,356.505 C572.834,347.154 563.621,337.677 556.463,345.338" fill-opacity="0" stroke="#000000" stroke-width="2" stroke-linecap="round" stroke-linejoin="round"/>
    <path d="M560.562,417.526 C552.296,418.567 554.69,416.789 548.638,424.705 C531.765,446.776 580.43,442.281 565.034,419.919 C561.846,415.288 559.852,414.335 555.345,414.335" fill-opacity="0" stroke="#000000" stroke-width="2" stroke-linecap="round" stroke-linejoin="round"/>
    <path d="M597.454,442.653 C590.486,440.561 585.21,443.351 581.058,449.433 C578.95,452.52 575.479,459.14 578.822,462.993 C592.446,478.696 625.998,444.819 598.199,439.861 C595.356,439.354 593.542,439.462 590.747,439.462" fill-opacity="0" stroke="#000000" stroke-width="2" stroke-linecap="round" stroke-linejoin="round"/>
    <path d="M552.737,308.246 L552.737,308.246" fill-opacity="0" stroke="#000000" stroke-width="2" stroke-linecap="round" stroke-linejoin="round"/>
    <g>
      <path d="M553.855,303.46 C567.608,285.764 616.594,282.28 630.247,301.067 C637.355,310.849 631.379,320.889 623.098,326.682" fill-opacity="0" stroke="#000000" stroke-width="2" stroke-linecap="round" stroke-linejoin="round"/>
      <path d="M621.655,323.384 L614.302,330.529 L624.541,329.98 z" fill="#000000" fill-opacity="1" stroke="#000000" stroke-width="2" stroke-opacity="1"/>
    </g>
    <g>
      <path d="M550.501,376.048 C549.479,386.303 555.119,392.206 562.759,394.93" fill-opacity="0" stroke="#000000" stroke-width="2" stroke-linecap="round" stroke-linejoin="round"/>
      <path d="M562.19,398.485 L572.238,396.449 L563.329,391.376 z" fill="#000000" fill-opacity="1" stroke="#000000" stroke-width="2" stroke-opacity="1"/>
    </g>
    <g>
      <path d="M528.168,488.352 C544.516,503.667 579.452,492.541 585.53,469.773" fill-opacity="0" stroke="#000000" stroke-width="2" stroke-linecap="round" stroke-linejoin="round"/>
      <path d="M531.188,486.392 L522.943,480.298 L525.147,490.311 z" fill="#000000" fill-opacity="1" stroke="#000000" stroke-width="2" stroke-opacity="1"/>
    </g>
    <g>
      <path d="M499.859,446.685 C478.407,419.986 502.495,366.915 518.01,394.59" fill-opacity="0" stroke="#000000" stroke-width="2" stroke-linecap="round" stroke-linejoin="round"/>
      <path d="M497.488,449.394 L507.084,453.006 L502.229,443.975 z" fill="#000000" fill-opacity="1" stroke="#000000" stroke-width="2" stroke-opacity="1"/>
    </g>
    <g>
      <path d="M589.629,323.801 C580.741,314.526 567.846,314.218 563.346,323.026" fill-opacity="0" stroke="#000000" stroke-width="2" stroke-linecap="round" stroke-linejoin="round"/>
      <path d="M559.768,322.625 L562.277,332.566 L566.923,323.426 z" fill="#000000" fill-opacity="1" stroke="#000000" stroke-width="2" stroke-opacity="1"/>
    </g>
    <g>
      <path d="M547.69,285.313 C576.784,257.389 646.622,240.523 668.629,277.536 C695.143,322.128 655.363,382.429 610.124,382.429" fill-opacity="0" stroke="#000000" stroke-width="2" stroke-linecap="round" stroke-linejoin="round"/>
      <path d="M544.946,282.983 L541.475,292.63 L550.434,287.644 z" fill="#000000" fill-opacity="1" stroke="#000000" stroke-width="2" stroke-opacity="1"/>
    </g>
    <g>
      <path d="M522.491,295.632 C521.112,290.056 520.845,284.287 522.18,278.334 C533.433,228.152 647.713,205.963 682.79,233.266 C712.286,256.226 714.611,301.602 704.403,336.563 C695.376,367.48 677.228,395.633 652.233,413.937 C638.118,424.273 620.1,426.008 609.006,439.861" fill-opacity="0" stroke="#000000" stroke-width="2" stroke-linecap="round" stroke-linejoin="round"/>
      <path d="M519.123,296.904 L525.882,304.613 L525.859,294.361 z" fill="#000000" fill-opacity="1" stroke="#000000" stroke-width="2" stroke-opacity="1"/>
    </g>
    <path d="M799.31,249.871 C861.001,268.339 934.01,275.691 990.999,244.031" fill-opacity="0" stroke="#000000" stroke-width="2" stroke-linecap="round" stroke-linejoin="round"/>
    <path d="M807.898,242.314 C861.859,220.297 942.691,196.981 992.373,239.565" fill-opacity="0" stroke="#000000" stroke-width="2" stroke-linecap="round" stroke-linejoin="round"/>
    <path d="M803.432,257.772 C807.521,292.613 808.778,330 805.837,365.297 C803.711,390.807 793.227,416.989 798.279,442.247" fill-opacity="0" stroke="#000000" stroke-width="2" stroke-linecap="round" stroke-linejoin="round"/>
    <path d="M992.373,253.993 C997.125,307.863 969.127,391.517 982.067,443.278" fill-opacity="0" stroke="#000000" stroke-width="2" stroke-linecap="round" stroke-linejoin="round"/>
    <path d="M798.623,446.369 C834.608,472.098 890.81,476.181 933.973,471.103 C951.164,469.081 964.822,461.292 981.036,458.049" fill-opacity="0" stroke="#000000" stroke-width="2" stroke-linecap="round" stroke-linejoin="round"/>
    <path d="M854.607,299.408 C835.045,288.623 813.089,330.733 850.318,314.777" fill-opacity="0" stroke="#000000" stroke-width="2" stroke-linecap="round" stroke-linejoin="round"/>
    <path d="M849.068,307.986 C861.591,304.376 857.864,311.107 855.501,321.032" fill-opacity="0" stroke="#000000" stroke-width="2" stroke-linecap="round" stroke-linejoin="round"/>
    <path d="M869.619,308.88 C867.787,329.006 864.263,309.714 880.878,311.56" fill-opacity="0" stroke="#000000" stroke-width="2" stroke-linecap="round" stroke-linejoin="round"/>
    <path d="M898.213,309.773 C878.697,308.272 886.823,337.378 901.608,307.807 C903.238,304.547 899.655,314.89 899.463,318.53" fill-opacity="0" stroke="#000000" stroke-width="2" stroke-linecap="round" stroke-linejoin="round"/>
    <path d="M913.76,312.275 C912.671,306.643 909.292,334.632 909.292,328.895 C909.292,306.899 933.857,303.648 922.16,319.245" fill-opacity="0" stroke="#000000" stroke-width="2" stroke-linecap="round" stroke-linejoin="round"/>
    <path d="M937.707,302.267 C934.724,321.021 937.679,303.285 935.741,313.526 C933.385,325.982 933.724,315.422 939.137,311.024 C950.744,301.593 948.145,317.842 946.107,324.249" fill-opacity="0" stroke="#000000" stroke-width="2" stroke-linecap="round" stroke-linejoin="round"/>
    <path d="M835.843,362.135 C831.498,357.571 823.693,368.438 826.193,372.5 C829.997,378.682 851.565,339.989 850.318,343.728 C847.229,352.997 841.366,362.665 842.634,371.964" fill-opacity="0" stroke="#000000" stroke-width="2" stroke-linecap="round" stroke-linejoin="round"/>
    <path d="M868.189,363.386 C859.446,350.978 846.065,389.971 870.155,361.063 C872.617,358.108 867.447,368.331 866.938,372.143" fill-opacity="0" stroke="#000000" stroke-width="2" stroke-linecap="round" stroke-linejoin="round"/>
    <path d="M879.805,349.625 C886.47,350.917 893.466,348.871 900,349.804" fill-opacity="0" stroke="#000000" stroke-width="2" stroke-linecap="round" stroke-linejoin="round"/>
    <path d="M888.92,343.013 C887.686,352.242 884.667,361.166 882.665,370.177" fill-opacity="0" stroke="#000000" stroke-width="2" stroke-linecap="round" stroke-linejoin="round"/>
    <path d="M907.863,361.241 C903.462,357.1 893.889,368.307 898.57,371.428 C902.203,373.85 908.886,360.234 910.186,360.884 C913.301,362.441 907.863,367.588 907.863,371.07" fill-opacity="0" stroke="#000000" stroke-width="2" stroke-linecap="round" stroke-linejoin="round"/>
    <path d="M925.019,347.838 C924.364,349.923 923.744,352.02 923.053,354.093 C916.013,375.212 941.179,353.78 931.452,367.675 C928.613,371.731 920.523,375.859 920.909,368.926" fill-opacity="0" stroke="#000000" stroke-width="2" stroke-linecap="round" stroke-linejoin="round"/>
    <path d="M947.894,363.565 C939.693,361.574 935.156,379.116 945.213,371.07 C954.511,363.632 950.625,361.082 948.608,372.679" fill-opacity="0" stroke="#000000" stroke-width="2" stroke-linecap="round" stroke-linejoin="round"/>
    <path d="M960.224,363.743 C946.179,367.649 972.485,376.249 953.255,375.181" fill-opacity="0" stroke="#000000" stroke-width="2" stroke-linecap="round" stroke-linejoin="round"/>
    <path d="M970.768,368.032 C976.182,358.082 952.778,379.056 971.841,373.036" fill-opacity="0" stroke="#000000" stroke-width="2" stroke-linecap="round" stroke-linejoin="round"/>
    <path d="M349.68,269.926 C353.341,264.693 356.622,259.165 360.395,254.002 C369.962,240.91 358.203,265.521 359.948,268.14 C360.114,268.388 370.385,252.981 380.188,244.031" fill-opacity="0" stroke="#000000" stroke-width="2" stroke-linecap="round" stroke-linejoin="round"/>
    <path d="M386.141,257.871 C382.154,258.011 379.408,260.656 378.104,264.568 C371.177,285.349 403.412,243.399 383.759,260.104" fill-opacity="0" stroke="#000000" stroke-width="2" stroke-linecap="round" stroke-linejoin="round"/>
    <path d="M410.398,258.764 C406.342,254.72 396.691,266.998 402.362,269.479 C412.245,273.803 415.274,246.859 419.625,246.859 C421.261,246.859 418.799,250.026 418.434,251.621 C417.217,256.946 416.323,262.821 416.648,267.693" fill-opacity="0" stroke="#000000" stroke-width="2" stroke-linecap="round" stroke-linejoin="round"/>
    <path d="M433.316,261.889 C441.427,247.506 415.531,273.572 434.06,267.396" fill-opacity="0" stroke="#000000" stroke-width="2" stroke-linecap="round" stroke-linejoin="round"/>
    <path d="M451.323,256.83 C432.089,261.628 459.961,262.183 449.686,269.033 C446.341,271.263 443.642,271.98 439.864,271.414" fill-opacity="0" stroke="#000000" stroke-width="2" stroke-linecap="round" stroke-linejoin="round"/>
    <path d="M507.351,166.666 C508.572,180.702 503.98,192.459 518.933,180.496" fill-opacity="0" stroke="#000000" stroke-width="2" stroke-linecap="round" stroke-linejoin="round"/>
    <path d="M511.154,173.754 C513.653,172.907 516.023,171.738 518.414,170.642" fill-opacity="0" stroke="#000000" stroke-width="2" stroke-linecap="round" stroke-linejoin="round"/>
    <path d="M509.252,166.148 C512.719,164.254 516.418,162.99 519.797,160.962" fill-opacity="0" stroke="#000000" stroke-width="2" stroke-linecap="round" stroke-linejoin="round"/>
    <path d="M531.725,167.012 C528.177,166.586 527.867,177.828 531.725,176.174 C538.792,173.146 536.911,150.08 536.911,152.837 C536.911,158.828 537.225,165.572 539.85,170.297" fill-opacity="0" stroke="#000000" stroke-width="2" stroke-linecap="round" stroke-linejoin="round"/>
    <path d="M549.704,158.023 C548.899,160.468 546.855,164.855 549.185,167.185 C549.893,167.893 557.5,156.562 553.853,154.738 C552.125,153.875 558.617,169.315 558.693,170.297 C559.147,176.195 551.782,175.959 550.222,173.062" fill-opacity="0" stroke="#000000" stroke-width="2" stroke-linecap="round" stroke-linejoin="round"/>
    <path d="M566.818,150.935 C562.197,149.227 559.082,163.832 566.991,158.714" fill-opacity="0" stroke="#000000" stroke-width="2" stroke-linecap="round" stroke-linejoin="round"/>
    <path d="M576.153,145.058 C558.804,155 596.338,149.912 575.634,157.159" fill-opacity="0" stroke="#000000" stroke-width="2" stroke-linecap="round" stroke-linejoin="round"/>
    <path d="M564.57,156.64 C567.194,156.247 567.167,154.868 568.028,153.528" fill-opacity="0" stroke="#000000" stroke-width="2" stroke-linecap="round" stroke-linejoin="round"/>
    <path d="M611.418,134.167 C612.175,137.68 609.191,148.992 602.602,149.379 C593.008,149.944 613.766,120.093 610.035,116.362 C604.373,110.7 589.344,160.035 617.814,145.231" fill-opacity="0" stroke="#000000" stroke-width="2" stroke-linecap="round" stroke-linejoin="round"/>
    <path d="M524.292,205.352 C526.355,209.745 526.389,213.558 526.021,217.971" fill-opacity="0" stroke="#000000" stroke-width="2" stroke-linecap="round" stroke-linejoin="round"/>
    <path d="M525.848,202.24 C543.846,194.707 531.885,191.517 536.911,210.365" fill-opacity="0" stroke="#000000" stroke-width="2" stroke-linecap="round" stroke-linejoin="round"/>
    <path d="M549.012,199.993 C555.528,181.356 533.271,219.209 555.236,202.413" fill-opacity="0" stroke="#000000" stroke-width="2" stroke-linecap="round" stroke-linejoin="round"/>
    <path d="M557.483,190.485 C562.521,187.89 566.962,184.399 572.35,183.052" fill-opacity="0" stroke="#000000" stroke-width="2" stroke-linecap="round" stroke-linejoin="round"/>
    <path d="M562.669,184.089 C562.792,189.089 564.773,193.804 567.163,196.535" fill-opacity="0" stroke="#000000" stroke-width="2" stroke-linecap="round" stroke-linejoin="round"/>
    <path d="M585.142,182.706 C581.58,181.771 574.885,189.338 578.746,192.041 C582.822,194.894 586.339,182.507 586.525,182.879 C588.219,186.268 586.387,186.91 588.945,189.102" fill-opacity="0" stroke="#000000" stroke-width="2" stroke-linecap="round" stroke-linejoin="round"/>
    <path d="M606.232,174.964 C601.708,172.288 595.044,181.755 598.453,185.163 C602.949,189.66 611.099,163.582 611.418,163.9 C614.638,167.121 605.945,185.231 615.567,179.459" fill-opacity="0" stroke="#000000" stroke-width="2" stroke-linecap="round" stroke-linejoin="round"/>
    <path d="M628.705,166.321 C626.936,167.738 620.207,174.245 623.519,177.557 C628.792,182.831 633.98,160.694 633.026,163.555 C631.22,168.973 632.719,172.665 633.891,174.618" fill-opacity="0" stroke="#000000" stroke-width="2" stroke-linecap="round" stroke-linejoin="round"/>
    <path d="M640.46,157.331 C644.819,155.874 649.213,154.462 653.598,153.183" fill-opacity="0" stroke="#000000" stroke-width="2" stroke-linecap="round" stroke-linejoin="round"/>
    <path d="M645.473,152.318 C645.07,159.139 646.349,166.355 648.412,172.544" fill-opacity="0" stroke="#000000" stroke-width="2" stroke-linecap="round" stroke-linejoin="round"/>
    <path d="M664.316,156.467 C652.612,162.758 661.021,174.615 667.946,160.27 C668.033,160.089 670.786,154.64 670.366,154.22 C668.193,152.046 668.876,161.632 671.403,163.382" fill-opacity="0" stroke="#000000" stroke-width="2" stroke-linecap="round" stroke-linejoin="round"/>
    <path d="M241.007,385.315 C247.725,385.996 254.859,386.899 261.565,386.154" fill-opacity="0" stroke="#C60A0A" stroke-width="5.5" stroke-linecap="round" stroke-linejoin="round"/>
    <path d="M244.363,394.964 C250.832,395.046 256.858,396.933 263.243,396.223" fill-opacity="0" stroke="#C60A0A" stroke-width="5.5" stroke-linecap="round" stroke-linejoin="round"/>
    <path d="M258.209,371.889 C287.942,390.32 301.793,383.432 261.565,412.166" fill-opacity="0" stroke="#C60A0A" stroke-width="5.5" stroke-linecap="round" stroke-linejoin="round"/>
    <path d="M455.291,351.674 C464.289,353.467 473.486,353.284 482.562,354.191" fill-opacity="0" stroke="#C60A0A" stroke-width="5.5" stroke-linecap="round" stroke-linejoin="round"/>
    <path d="M455.291,361.324 C461.999,363.212 468.92,363.078 475.43,365.52" fill-opacity="0" stroke="#C60A0A" stroke-width="5.5" stroke-linecap="round" stroke-linejoin="round"/>
    <path d="M487.597,346.639 C500.776,357.727 475.843,371.271 466.619,379.785" fill-opacity="0" stroke="#C60A0A" stroke-width="5.5" stroke-linecap="round" stroke-linejoin="round"/>
    <path d="M718.968,349.292 C728.645,351.476 755.774,349.036 771.413,347.614" fill-opacity="0" stroke="#C60A0A" stroke-width="5.5" stroke-linecap="round" stroke-linejoin="round"/>
    <path d="M722.325,361.04 C734.96,358.966 747.79,361.46 760.085,361.46" fill-opacity="0" stroke="#C60A0A" stroke-width="5.5" stroke-linecap="round" stroke-linejoin="round"/>
    <path d="M779.385,338.803 C815.372,348.325 776.018,361.47 762.183,375.305" fill-opacity="0" stroke="#C60A0A" stroke-width="5.5" stroke-linecap="round" stroke-linejoin="round"/>
  </g>
</svg>
